<svg width="112" height="136" viewBox="0 0 112 136" fill="none" xmlns="http://www.w3.org/2000/svg">
<path d="M33.159 122.327V89.3892H34.3421V86.4769V85.3425H33.159V76.8379H14.2786V85.3425H13.0524V86.4769V89.3892H14.2786V122.327H33.159Z" stroke="black" stroke-width="0.129622" stroke-miterlimit="10"/>
<path d="M25.2404 119.418H22.1973V122.358H25.2404V119.418Z" stroke="black" stroke-width="0.129622" stroke-miterlimit="10"/>
<path d="M23.9175 122.358H23.5209V119.418H23.9175V122.358Z" stroke="black" stroke-width="0.129622" stroke-miterlimit="10"/>
<path d="M16.8973 90.4458H15.6604V112.768H16.8973V90.4458Z" stroke="black" stroke-width="0.129622" stroke-miterlimit="10"/>
<path d="M19.3701 90.4458H18.1335V112.768H19.3701V90.4458Z" stroke="black" stroke-width="0.129622" stroke-miterlimit="10"/>
<path d="M21.8428 90.4458H20.606V112.768H21.8428V90.4458Z" stroke="black" stroke-width="0.129622" stroke-miterlimit="10"/>
<path d="M24.3155 90.4458H23.0795V112.768H24.3155V90.4458Z" stroke="black" stroke-width="0.129622" stroke-miterlimit="10"/>
<path d="M26.7892 90.4458H25.5526V112.768H26.7892V90.4458Z" stroke="black" stroke-width="0.129622" stroke-miterlimit="10"/>
<path d="M29.2615 90.4458H28.0249V112.768H29.2615V90.4458Z" stroke="black" stroke-width="0.129622" stroke-miterlimit="10"/>
<path d="M31.7345 90.4458H30.4977V112.768H31.7345V90.4458Z" stroke="black" stroke-width="0.129622" stroke-miterlimit="10"/>
<path d="M16.8973 79.1843H15.6604V84.2259H16.8973V79.1843Z" stroke="black" stroke-width="0.129622" stroke-miterlimit="10"/>
<path d="M19.3701 79.1843H18.1335V84.2259H19.3701V79.1843Z" stroke="black" stroke-width="0.129622" stroke-miterlimit="10"/>
<path d="M21.8428 79.1843H20.606V84.2259H21.8428V79.1843Z" stroke="black" stroke-width="0.129622" stroke-miterlimit="10"/>
<path d="M24.3155 79.1843H23.0795V84.2259H24.3155V79.1843Z" stroke="black" stroke-width="0.129622" stroke-miterlimit="10"/>
<path d="M26.7892 79.1843H25.5526V84.2259H26.7892V79.1843Z" stroke="black" stroke-width="0.129622" stroke-miterlimit="10"/>
<path d="M29.2615 79.1843H28.0249V84.2259H29.2615V79.1843Z" stroke="black" stroke-width="0.129622" stroke-miterlimit="10"/>
<path d="M31.7345 79.1843H30.4977V84.2259H31.7345V79.1843Z" stroke="black" stroke-width="0.129622" stroke-miterlimit="10"/>
<path d="M23.7184 72.1948H20.0096V76.8376H23.7184H27.4279V72.1948H23.7184Z" stroke="black" stroke-width="0.129622" stroke-miterlimit="10"/>
<path d="M24.7399 72.1948H22.6984V71.2981H24.7399V72.1948Z" stroke="black" stroke-width="0.129622" stroke-miterlimit="10"/>
<path d="M15.6604 114.129V117.957H21.783L25.6118 114.129H15.6604Z" stroke="black" stroke-width="0.129622" stroke-miterlimit="10"/>
<path d="M31.7345 114.129H25.6119L21.7831 117.957H31.7345V114.129Z" stroke="black" stroke-width="0.129622" stroke-miterlimit="10"/>
<path d="M13.0524 87.2622H34.6239" stroke="black" stroke-width="0.129622" stroke-miterlimit="10"/>
<path d="M81.3451 96.4018C81.3451 87.1341 81.3451 77.4272 81.3451 77.4272L91.5552 70.1626L101.765 77.4272V112.966H81.3451C81.3451 112.966 81.3451 104.867 81.3451 96.4018Z" stroke="black" stroke-width="0.129622" stroke-miterlimit="10"/>
<path d="M99.8638 110.076H97.3779V106.332H99.8638V110.076Z" stroke="black" stroke-width="0.129622" stroke-miterlimit="10"/>
<path d="M99.8638 104.778H97.3779V101.034H99.8638V104.778Z" stroke="black" stroke-width="0.129622" stroke-miterlimit="10"/>
<path d="M99.8638 99.4804H97.3779V95.7346H99.8638V99.4804Z" stroke="black" stroke-width="0.129622" stroke-miterlimit="10"/>
<path d="M99.8638 94.1826H97.3779V90.4368H99.8638V94.1826Z" stroke="black" stroke-width="0.129622" stroke-miterlimit="10"/>
<path d="M99.4601 88.8847C98.7559 88.8847 97.3779 88.8847 97.3779 88.8847V85.1389H99.8638V88.8847" stroke="black" stroke-width="0.129622" stroke-miterlimit="10"/>
<path d="M97.3779 81.8002C97.3779 80.8359 97.3779 79.8411 97.3779 79.8411H99.8638V83.5866" stroke="black" stroke-width="0.129622" stroke-miterlimit="10"/>
<path d="M96.3306 110.076H93.8447V106.332H96.3306V110.076Z" stroke="black" stroke-width="0.129622" stroke-miterlimit="10"/>
<path d="M96.3306 104.778H93.8447V101.034H96.3306V104.778Z" stroke="black" stroke-width="0.129622" stroke-miterlimit="10"/>
<path d="M96.3306 99.4804H93.8447V95.7346H96.3306V99.4804Z" stroke="black" stroke-width="0.129622" stroke-miterlimit="10"/>
<path d="M96.3306 94.1826H93.8447V90.4368H96.3306V94.1826Z" stroke="black" stroke-width="0.129622" stroke-miterlimit="10"/>
<path d="M96.2821 88.8847C95.935 88.8847 93.8447 88.8847 93.8447 88.8847V85.1389H96.3306V88.8847" stroke="black" stroke-width="0.129622" stroke-miterlimit="10"/>
<path d="M93.8447 83.0242C93.8447 81.9787 93.8447 79.8411 93.8447 79.8411H96.3306V83.5866" stroke="black" stroke-width="0.129622" stroke-miterlimit="10"/>
<path d="M92.7993 110.076H90.3134V106.332H92.7993V110.076Z" stroke="black" stroke-width="0.129622" stroke-miterlimit="10"/>
<path d="M92.7993 104.778H90.3134V101.034H92.7993V104.778Z" stroke="black" stroke-width="0.129622" stroke-miterlimit="10"/>
<path d="M92.7993 99.4804H90.3134V95.7346H92.7993V99.4804Z" stroke="black" stroke-width="0.129622" stroke-miterlimit="10"/>
<path d="M92.7993 94.1826H90.3134V90.4368H92.7993V94.1826Z" stroke="black" stroke-width="0.129622" stroke-miterlimit="10"/>
<path d="M92.7993 88.8847H90.3134V85.1389H92.7993V88.8847Z" stroke="black" stroke-width="0.129622" stroke-miterlimit="10"/>
<path d="M90.84 83.5866C90.5322 83.5866 90.3134 83.5866 90.3134 83.5866V79.8411H92.7993V83.5866" stroke="black" stroke-width="0.129622" stroke-miterlimit="10"/>
<path d="M89.2677 110.076H86.7802V106.332H89.2677V110.076Z" stroke="black" stroke-width="0.129622" stroke-miterlimit="10"/>
<path d="M89.2677 104.778H86.7802V101.034H89.2677V104.778Z" stroke="black" stroke-width="0.129622" stroke-miterlimit="10"/>
<path d="M89.2677 99.4804H86.7802V95.7346H89.2677V99.4804Z" stroke="black" stroke-width="0.129622" stroke-miterlimit="10"/>
<path d="M89.2677 94.1826H86.7802V90.4368H89.2677V94.1826Z" stroke="black" stroke-width="0.129622" stroke-miterlimit="10"/>
<path d="M89.2677 88.8847H86.7802V85.1389H89.2677V88.8847Z" stroke="black" stroke-width="0.129622" stroke-miterlimit="10"/>
<path d="M88.2081 83.5866C87.5313 83.5866 86.7802 83.5866 86.7802 83.5866V79.8411H89.2677V83.5866" stroke="black" stroke-width="0.129622" stroke-miterlimit="10"/>
<path d="M85.7344 110.076H83.2485V106.332H85.7344V110.076Z" stroke="black" stroke-width="0.129622" stroke-miterlimit="10"/>
<path d="M85.7344 104.778H83.2485V101.034H85.7344V104.778Z" stroke="black" stroke-width="0.129622" stroke-miterlimit="10"/>
<path d="M85.7344 99.4804H83.2485V95.7346H85.7344V99.4804Z" stroke="black" stroke-width="0.129622" stroke-miterlimit="10"/>
<path d="M85.7344 94.1826H83.2485V90.4368H85.7344V94.1826Z" stroke="black" stroke-width="0.129622" stroke-miterlimit="10"/>
<path d="M85.7344 88.8847H83.2485V85.1389H85.7344V88.8847Z" stroke="black" stroke-width="0.129622" stroke-miterlimit="10"/>
<path d="M85.3307 83.5866C84.6266 83.5866 83.2485 83.5866 83.2485 83.5866V79.8411H85.7344V83.5866" stroke="black" stroke-width="0.129622" stroke-miterlimit="10"/>
<path d="M58.1574 82.5984H51.423V64.0178H58.1574V82.5984Z" fill="#8F245C"/>
<path d="M53.8164 134.507H44.2827V75.9045H53.8164V134.507Z" fill="#8F245C"/>
<path d="M23.0621 134.507H35.6437V87.5784L23.0621 96.8281V134.507Z" fill="#8F245C"/>
<path d="M92.9664 134.506H83.5138V86.8987H92.9664V134.506Z" fill="#E99EC6"/>
<path d="M53.8167 134.506H83.5131V18.2561H53.8167V134.506Z" fill="#B4598A"/>
<path d="M81.4175 26.505H78.2262V23.3137H81.4175V26.505Z" fill="#D773A9"/>
<path d="M81.4446 33.1976H78.1991V29.9521H81.4446V33.1976Z" stroke="#725464" stroke-width="0.129622" stroke-miterlimit="10"/>
<path d="M81.4446 39.8632H78.1991V36.6177H81.4446V39.8632Z" fill="#D773A9"/>
<path d="M81.4446 46.5287H78.1991V43.2832H81.4446V46.5287Z" stroke="#725464" stroke-width="0.129622" stroke-miterlimit="10"/>
<path d="M81.4446 53.194H78.1991V49.9485H81.4446V53.194Z" fill="#D773A9"/>
<path d="M81.4446 59.8598H78.1991V56.614H81.4446V59.8598Z" stroke="#725464" stroke-width="0.129622" stroke-miterlimit="10"/>
<path d="M81.4446 66.525H78.1991V63.2795H81.4446V66.525Z" fill="#D773A9"/>
<path d="M81.4446 73.1906H78.1991V69.9451H81.4446V73.1906Z" stroke="#725464" stroke-width="0.129622" stroke-miterlimit="10"/>
<path d="M81.4446 79.8558H78.1991V76.6104H81.4446V79.8558Z" fill="#D773A9"/>
<path d="M81.4446 86.5216H78.1991V83.2761H81.4446V86.5216Z" stroke="#725464" stroke-width="0.129622" stroke-miterlimit="10"/>
<path d="M81.4446 93.1869H78.1991V89.9414H81.4446V93.1869Z" fill="#D773A9"/>
<path d="M81.4446 99.8525H78.1991V96.6069H81.4446V99.8525Z" stroke="#725464" stroke-width="0.129622" stroke-miterlimit="10"/>
<path d="M81.4446 106.518H78.1991V103.272H81.4446V106.518Z" fill="#D773A9"/>
<path d="M81.4446 113.183H78.1991V109.938H81.4446V113.183Z" stroke="#725464" stroke-width="0.129622" stroke-miterlimit="10"/>
<path d="M81.4446 119.849H78.1991V116.603H81.4446V119.849Z" fill="#D773A9"/>
<path d="M81.4446 126.515H78.1991V123.269H81.4446V126.515Z" stroke="#725464" stroke-width="0.129622" stroke-miterlimit="10"/>
<path d="M53.8167 0C53.8167 0 75.3589 21.4047 75.3589 52.9483V134.506H53.8167V0Z" fill="#D773A9"/>
<path d="M59.5369 134.507H56.7783V10.4668H59.5369V134.507Z" stroke="white" stroke-width="0.129622" stroke-miterlimit="10"/>
<path d="M63.648 134.506H60.8894V21.0796H63.648V134.506Z" stroke="white" stroke-width="0.129622" stroke-miterlimit="10"/>
<path d="M67.7591 134.507H65.0005V31.6924H67.7591V134.507Z" stroke="white" stroke-width="0.129622" stroke-miterlimit="10"/>
<path d="M71.8702 134.507H69.1116V42.3052H71.8702V134.507Z" stroke="white" stroke-width="0.129622" stroke-miterlimit="10"/>
<path d="M29.353 134.507H49.5564V59.1497H29.353V134.507Z" fill="#FB5FB2"/>
<path d="M47.3658 64.6264H31.5438V62.1924H47.3658V64.6264Z" stroke="#725464" stroke-width="0.129622" stroke-miterlimit="10"/>
<path d="M47.3658 69.0486H31.5438V66.6143H47.3658V69.0486Z" stroke="#725464" stroke-width="0.129622" stroke-miterlimit="10"/>
<path d="M47.3658 73.4704H31.5438V71.0364H47.3658V73.4704Z" stroke="#725464" stroke-width="0.129622" stroke-miterlimit="10"/>
<path d="M47.3658 77.8925H31.5438V75.4585H47.3658V77.8925Z" stroke="#725464" stroke-width="0.129622" stroke-miterlimit="10"/>
<path d="M47.3658 82.3147H31.5438V79.8804H47.3658V82.3147Z" stroke="#725464" stroke-width="0.129622" stroke-miterlimit="10"/>
<path d="M47.3658 86.7368H31.5438V84.3025H47.3658V86.7368Z" stroke="#725464" stroke-width="0.129622" stroke-miterlimit="10"/>
<path d="M47.3658 91.1588H31.5438V88.7246H47.3658V91.1588Z" stroke="#725464" stroke-width="0.129622" stroke-miterlimit="10"/>
<path d="M47.3658 134.507H31.5438V93.4709H47.3658V134.507Z" stroke="#725464" stroke-width="0.129622" stroke-miterlimit="10"/>
<path d="M47.3658 99.8525H31.5438V98.887H47.3658V99.8525Z" stroke="#725464" stroke-width="0.129622" stroke-miterlimit="10"/>
<path d="M47.3658 103.078H31.5438V102.112H47.3658V103.078Z" stroke="#725464" stroke-width="0.129622" stroke-miterlimit="10"/>
<path d="M47.3658 106.303H31.5438V105.337H47.3658V106.303Z" stroke="#725464" stroke-width="0.129622" stroke-miterlimit="10"/>
<path d="M47.3658 109.528H31.5438V108.563H47.3658V109.528Z" stroke="#725464" stroke-width="0.129622" stroke-miterlimit="10"/>
<path d="M47.3658 112.753H31.5438V111.788H47.3658V112.753Z" stroke="#725464" stroke-width="0.129622" stroke-miterlimit="10"/>
<path d="M47.3658 115.979H31.5438V115.013H47.3658V115.979Z" stroke="#725464" stroke-width="0.129622" stroke-miterlimit="10"/>
<path d="M47.3658 119.204H31.5438V118.239H47.3658V119.204Z" stroke="#725464" stroke-width="0.129622" stroke-miterlimit="10"/>
<path d="M47.3658 122.429H31.5438V121.464H47.3658V122.429Z" stroke="#725464" stroke-width="0.129622" stroke-miterlimit="10"/>
<path d="M47.3658 125.654H31.5438V124.689H47.3658V125.654Z" stroke="#725464" stroke-width="0.129622" stroke-miterlimit="10"/>
<path d="M43.1061 130.511H35.8037V134.507H43.1061V130.511Z" stroke="#725464" stroke-width="0.129622" stroke-miterlimit="10"/>
<path d="M103.213 108.715V134.561H88.3621V108.715L95.7875 103.432L103.213 108.715ZM101.83 129.736H100.022V132.459H101.83V129.736ZM101.83 125.883H100.022V128.606H101.83V125.883ZM101.83 122.029H100.022V124.753H101.83V122.029ZM101.83 118.176H100.022V120.9H101.83V118.176ZM101.83 114.323H100.022V117.047H101.83V114.323ZM101.83 110.47H100.022V113.195H101.83V110.47ZM99.2603 129.736H97.4523V132.459H99.2603V129.736ZM99.2603 125.883H97.4523V128.606H99.2603V125.883ZM99.2603 122.029H97.4523V124.753H99.2603V122.029ZM99.2603 118.176H97.4523V120.9H99.2603V118.176ZM99.2603 114.323H97.4523V117.047H99.2603V114.323ZM99.2603 110.47H97.4523V113.195H99.2603V110.47ZM96.692 129.736H94.8841V132.459H96.692V129.736ZM96.692 125.883H94.8841V128.606H96.692V125.883ZM96.692 122.029H94.8841V124.753H96.692V122.029ZM96.692 118.176H94.8841V120.9H96.692V118.176ZM96.692 114.323H94.8841V117.047H96.692V114.323ZM96.692 110.47H94.8841V113.195H96.692V110.47ZM94.1238 129.736H92.3146V132.459H94.1238V129.736ZM94.1238 125.883H92.3146V128.606H94.1238V125.883ZM94.1238 122.029H92.3146V124.753H94.1238V122.029ZM94.1238 118.176H92.3146V120.9H94.1238V118.176ZM94.1238 114.323H92.3146V117.047H94.1238V114.323ZM94.1238 110.47H92.3146V113.195H94.1238V110.47ZM91.5544 129.736H89.7466V132.459H91.5544V129.736ZM91.5544 125.883H89.7466V128.606H91.5544V125.883ZM91.5544 122.029H89.7466V124.753H91.5544V122.029ZM91.5544 118.176H89.7466V120.9H91.5544V118.176ZM91.5544 114.323H89.7466V117.047H91.5544V114.323ZM91.5544 110.47H89.7466V113.195H91.5544V110.47Z" fill="#FB5FB2"/>
<path d="M101.83 132.459H100.022V129.736H101.83V132.459Z" fill="#C93082"/>
<path d="M101.83 128.606H100.022V125.883H101.83V128.606Z" fill="#C93082"/>
<path d="M101.758 124.645H100.094V122.137H101.758V124.645Z" fill="#C93082"/>
<path d="M101.783 120.829H100.069V118.247H101.783V120.829Z" fill="#C93082"/>
<path d="M101.431 116.446H100.421V114.925H101.431V116.446Z" fill="#C93082"/>
<path d="M101.83 113.194H100.022V110.47H101.83V113.194Z" fill="#C93082"/>
<path d="M99.2606 132.459H97.4526V129.736H99.2606V132.459Z" fill="#C93082"/>
<path d="M99.2591 128.604H97.454V125.885H99.2591V128.604Z" fill="#C93082"/>
<path d="M99.1675 124.613H97.5455V122.169H99.1675V124.613Z" fill="#C93082"/>
<path d="M99.298 120.957H97.4144V118.119H99.298V120.957Z" fill="#C93082"/>
<path d="M98.5733 116.012H98.1389V115.358H98.5733V116.012Z" fill="#C93082"/>
<path d="M99.2606 113.195H97.4526V110.47H99.2606V113.195Z" fill="#C93082"/>
<path d="M96.6921 132.459H94.8842V129.736H96.6921V132.459Z" fill="#C93082"/>
<path d="M96.6809 128.589H94.8955V125.9H96.6809V128.589Z" fill="#C93082"/>
<path d="M96.5823 124.588H94.994V122.194H96.5823V124.588Z" fill="#C93082"/>
<path d="M96.7932 121.053H94.7839V118.025H96.7932V121.053Z" fill="#C93082"/>
<path d="M95.8159 115.727H95.7606V115.644H95.8159V115.727Z" fill="#C93082"/>
<path d="M96.6925 113.195H94.8845V110.47H96.6925V113.195Z" fill="#C93082"/>
<path d="M94.124 132.459H92.3148V129.736H94.124V132.459Z" fill="#C93082"/>
<path d="M94.0957 128.564H92.343V125.926H94.0957V128.564Z" fill="#C93082"/>
<path d="M94.0043 124.573H92.4344V122.209H94.0043V124.573Z" fill="#C93082"/>
<path d="M94.2052 121.023H92.234V118.054H94.2052V121.023Z" fill="#C93082"/>
<path d="M94.1238 117.047H92.3147V114.323H94.1238V117.047Z" fill="#C93082"/>
<path d="M94.1241 113.194H92.3149V110.47H94.1241V113.194Z" fill="#C93082"/>
<path d="M91.5546 132.459H89.7466V129.736H91.5546V132.459Z" fill="#C93082"/>
<path d="M91.5052 128.532H89.7959V125.958H91.5052V128.532Z" fill="#C93082"/>
<path d="M91.4439 124.587H89.8572V122.196H91.4439V124.587Z" fill="#C93082"/>
<path d="M91.4435 120.733H89.8574V118.343H91.4435V120.733Z" fill="#C93082"/>
<path d="M91.5544 117.047H89.7465V114.323H91.5544V117.047Z" fill="#C93082"/>
<path d="M91.5545 113.194H89.7466V110.47H91.5545V113.194Z" fill="#C93082"/>
<path d="M26.8489 114.657V134.617H9.81116V114.657C9.81116 109.95 13.6245 106.136 18.3292 106.136C20.6809 106.136 22.8115 107.089 24.3528 108.631C25.8955 110.173 26.8489 112.304 26.8489 114.657Z" fill="#FB5FB2"/>
<path d="M25.1349 131.004H23.0488V127.981H25.1349V131.004Z" fill="#FB5FB2"/>
<path d="M25.1349 131.004H23.0488V127.981H25.1349V131.004Z" stroke="white" stroke-width="0.129609" stroke-miterlimit="10"/>
<path d="M25.1349 127.372H23.0488V124.348H25.1349V127.372Z" fill="#FB5FB2"/>
<path d="M25.1349 127.372H23.0488V124.348H25.1349V127.372Z" stroke="white" stroke-width="0.129609" stroke-miterlimit="10"/>
<path d="M25.1349 123.739H23.0488V120.716H25.1349V123.739Z" fill="#FB5FB2"/>
<path d="M25.1349 123.739H23.0488V120.716H25.1349V123.739Z" stroke="white" stroke-width="0.129609" stroke-miterlimit="10"/>
<path d="M25.1349 120.107H23.0488V117.084H25.1349V120.107Z" fill="#FB5FB2"/>
<path d="M25.1349 120.107H23.0488V117.084H25.1349V120.107Z" stroke="white" stroke-width="0.129609" stroke-miterlimit="10"/>
<path d="M25.0951 116.475C24.8067 116.475 23.0488 116.475 23.0488 116.475V113.45H25.1349V116.475" fill="#FB5FB2"/>
<path d="M25.0951 116.475C24.8067 116.475 23.0488 116.475 23.0488 116.475V113.45H25.1349V116.475" stroke="white" stroke-width="0.129609" stroke-miterlimit="10"/>
<path d="M22.2543 131.004H20.1682V127.981H22.2543V131.004Z" fill="#FB5FB2"/>
<path d="M22.2543 131.004H20.1682V127.981H22.2543V131.004Z" stroke="white" stroke-width="0.129609" stroke-miterlimit="10"/>
<path d="M22.2543 127.372H20.1682V124.348H22.2543V127.372Z" fill="#FB5FB2"/>
<path d="M22.2543 127.372H20.1682V124.348H22.2543V127.372Z" stroke="white" stroke-width="0.129609" stroke-miterlimit="10"/>
<path d="M22.2543 123.739H20.1682V120.716H22.2543V123.739Z" fill="#FB5FB2"/>
<path d="M22.2543 123.739H20.1682V120.716H22.2543V123.739Z" stroke="white" stroke-width="0.129609" stroke-miterlimit="10"/>
<path d="M22.2543 120.107H20.1682V117.084H22.2543V120.107Z" fill="#FB5FB2"/>
<path d="M22.2543 120.107H20.1682V117.084H22.2543V120.107Z" stroke="white" stroke-width="0.129609" stroke-miterlimit="10"/>
<path d="M21.9232 116.475C21.3349 116.475 20.1682 116.475 20.1682 116.475V113.45H22.2543V116.475" fill="#FB5FB2"/>
<path d="M21.9232 116.475C21.3349 116.475 20.1682 116.475 20.1682 116.475V113.45H22.2543V116.475" stroke="white" stroke-width="0.129609" stroke-miterlimit="10"/>
<path d="M19.3736 131.004H17.2875V127.981H19.3736V131.004Z" fill="#FB5FB2"/>
<path d="M19.3736 131.004H17.2875V127.981H19.3736V131.004Z" stroke="white" stroke-width="0.129609" stroke-miterlimit="10"/>
<path d="M19.3736 127.372H17.2875V124.348H19.3736V127.372Z" fill="#FB5FB2"/>
<path d="M19.3736 127.372H17.2875V124.348H19.3736V127.372Z" stroke="white" stroke-width="0.129609" stroke-miterlimit="10"/>
<path d="M19.3736 123.739H17.2875V120.716H19.3736V123.739Z" fill="#FB5FB2"/>
<path d="M19.3736 123.739H17.2875V120.716H19.3736V123.739Z" stroke="white" stroke-width="0.129609" stroke-miterlimit="10"/>
<path d="M19.3736 120.107H17.2875V117.084H19.3736V120.107Z" fill="#FB5FB2"/>
<path d="M19.3736 120.107H17.2875V117.084H19.3736V120.107Z" stroke="white" stroke-width="0.129609" stroke-miterlimit="10"/>
<path d="M18.5049 116.475C17.9323 116.475 17.2875 116.475 17.2875 116.475V113.45H19.3736V116.475" fill="#FB5FB2"/>
<path d="M18.5049 116.475C17.9323 116.475 17.2875 116.475 17.2875 116.475V113.45H19.3736V116.475" stroke="white" stroke-width="0.129609" stroke-miterlimit="10"/>
<path d="M16.4926 131.004H14.4065V127.981H16.4926V131.004Z" fill="#FB5FB2"/>
<path d="M16.4926 131.004H14.4065V127.981H16.4926V131.004Z" stroke="white" stroke-width="0.129609" stroke-miterlimit="10"/>
<path d="M16.4926 127.372H14.4065V124.348H16.4926V127.372Z" fill="#FB5FB2"/>
<path d="M16.4926 127.372H14.4065V124.348H16.4926V127.372Z" stroke="white" stroke-width="0.129609" stroke-miterlimit="10"/>
<path d="M16.4926 123.739H14.4065V120.716H16.4926V123.739Z" fill="#FB5FB2"/>
<path d="M16.4926 123.739H14.4065V120.716H16.4926V123.739Z" stroke="white" stroke-width="0.129609" stroke-miterlimit="10"/>
<path d="M16.4926 120.107H14.4065V117.084H16.4926V120.107Z" fill="#FB5FB2"/>
<path d="M16.4926 120.107H14.4065V117.084H16.4926V120.107Z" stroke="white" stroke-width="0.129609" stroke-miterlimit="10"/>
<path d="M14.886 116.475C14.6081 116.475 14.4065 116.475 14.4065 116.475V113.45H16.4926V116.475" fill="#FB5FB2"/>
<path d="M14.886 116.475C14.6081 116.475 14.4065 116.475 14.4065 116.475V113.45H16.4926V116.475" stroke="white" stroke-width="0.129609" stroke-miterlimit="10"/>
<path d="M13.6118 131.004H11.524V127.981H13.6118V131.004Z" fill="#FB5FB2"/>
<path d="M13.6118 131.004H11.524V127.981H13.6118V131.004Z" stroke="white" stroke-width="0.129609" stroke-miterlimit="10"/>
<path d="M13.6118 127.372H11.524V124.348H13.6118V127.372Z" fill="#FB5FB2"/>
<path d="M13.6118 127.372H11.524V124.348H13.6118V127.372Z" stroke="white" stroke-width="0.129609" stroke-miterlimit="10"/>
<path d="M13.6118 123.739H11.524V120.716H13.6118V123.739Z" fill="#FB5FB2"/>
<path d="M13.6118 123.739H11.524V120.716H13.6118V123.739Z" stroke="white" stroke-width="0.129609" stroke-miterlimit="10"/>
<path d="M13.6118 120.107H11.524V117.084H13.6118V120.107Z" fill="#FB5FB2"/>
<path d="M13.6118 120.107H11.524V117.084H13.6118V120.107Z" stroke="white" stroke-width="0.129609" stroke-miterlimit="10"/>
<path d="M11.524 116.062C11.524 115.234 11.524 113.45 11.524 113.45H13.6118V116.475" fill="#FB5FB2"/>
<path d="M11.524 116.062C11.524 115.234 11.524 113.45 11.524 113.45H13.6118V116.475" stroke="white" stroke-width="0.129609" stroke-miterlimit="10"/>
<path d="M0.86084 134.617H111.742" stroke="#735364" stroke-width="0.907357" stroke-miterlimit="10"/>
</svg>
