<svg width="103" height="89" viewBox="0 0 103 89" fill="none" xmlns="http://www.w3.org/2000/svg">
<path d="M18.897 46.2562L19.5518 45.9757C19.683 45.9195 19.7627 45.7847 19.7486 45.6427L19.6786 44.9338L19.9591 45.5886C20.0153 45.7197 20.1501 45.7994 20.2921 45.7854L21.001 45.7153L20.3463 45.9959C20.2151 46.0521 20.1354 46.1869 20.1495 46.3289L20.2195 47.0378L19.9389 46.383C19.8827 46.2518 19.748 46.1722 19.6059 46.1862L18.897 46.2562Z" fill="#B02F73"/>
<path d="M13.6353 55.3047L14.2497 55.0415C14.3728 54.9887 14.4475 54.8623 14.4343 54.729L14.3686 54.0639L14.6318 54.6783C14.6846 54.8014 14.811 54.8761 14.9443 54.8629L15.6094 54.7972L14.995 55.0605C14.8719 55.1132 14.7972 55.2395 14.8104 55.3728L14.8761 56.0379L14.6129 55.4236C14.5601 55.3005 14.4338 55.2259 14.3005 55.239L13.6353 55.3047Z" fill="#B02F73"/>
<path d="M10.0325 39.5087L10.4906 39.3124C10.5824 39.273 10.6382 39.1788 10.6284 39.0794L10.5794 38.5834L10.7757 39.0415C10.815 39.1333 10.9093 39.189 11.0087 39.1792L11.5047 39.1302L11.0466 39.3265C10.9548 39.3659 10.899 39.4601 10.9088 39.5595L10.9578 40.0555L10.7616 39.5974C10.7222 39.5056 10.6279 39.4499 10.5285 39.4597L10.0325 39.5087Z" fill="#B02F73"/>
<path d="M96.772 42.1382L96.0436 42.2102C95.8977 42.2246 95.7593 42.1427 95.7016 42.008L95.4133 41.3353L95.4852 42.0636C95.4996 42.2095 95.4179 42.3479 95.2831 42.4057L94.6104 42.6939L95.3387 42.622C95.4846 42.6076 95.623 42.6894 95.6807 42.8242L95.969 43.4968L95.8971 42.7685C95.8827 42.6226 95.9645 42.4842 96.0993 42.4265L96.772 42.1382Z" fill="#B02F73"/>
<path d="M88.0729 51.2442L87.3896 51.3118C87.2527 51.3253 87.1227 51.2485 87.0686 51.122L86.7982 50.4909L86.8657 51.1742C86.8792 51.3111 86.8024 51.4411 86.676 51.4952L86.0448 51.7656L86.7281 51.6982C86.865 51.6847 86.995 51.7614 87.0491 51.8878L87.3196 52.519L87.252 51.8357C87.2385 51.6988 87.3153 51.5689 87.4418 51.5147L88.0729 51.2442Z" fill="#B02F73"/>
<path d="M90.3257 34.5265L89.8162 34.5768C89.714 34.587 89.6172 34.5297 89.5768 34.4354L89.3751 33.9647L89.4255 34.4743C89.4356 34.5764 89.3783 34.6733 89.284 34.7137L88.8133 34.9153L89.3229 34.865C89.425 34.8549 89.5219 34.9121 89.5623 35.0064L89.7639 35.4771L89.7136 34.9676C89.7035 34.8654 89.7607 34.7685 89.8551 34.7282L90.3257 34.5265Z" fill="#B02F73"/>
<path d="M24.8308 7.9798L25.3437 7.76001C25.4465 7.71601 25.5089 7.61035 25.4979 7.49912L25.4431 6.94386L25.6628 7.45671C25.7068 7.55947 25.8125 7.62191 25.9237 7.6109L26.4791 7.55605L25.9661 7.77585C25.8634 7.81985 25.8009 7.9255 25.8119 8.03674L25.8668 8.592L25.647 8.07914C25.603 7.97639 25.4973 7.91395 25.3861 7.92496L24.8308 7.9798Z" fill="#B02F73"/>
<path d="M17.063 16.656L17.5953 16.4278C17.702 16.3821 17.7667 16.2726 17.7553 16.1571L17.6984 15.5807L17.9266 16.1131C17.9723 16.2197 18.0818 16.2845 18.1972 16.2731L18.7736 16.2162L18.2413 16.4443C18.1346 16.4901 18.0699 16.5996 18.0813 16.715L18.1382 17.2914L17.91 16.7591C17.8643 16.6524 17.7548 16.5877 17.6394 16.5991L17.063 16.656Z" fill="#B02F73"/>
<path d="M72.6247 0.91079L72.0694 0.965633C71.9581 0.976644 71.8525 0.914202 71.8085 0.81145L71.5887 0.298591L71.6435 0.853856C71.6545 0.965089 71.5921 1.07075 71.4893 1.11475L70.9764 1.33454L71.5317 1.2797C71.643 1.26868 71.7486 1.33113 71.7926 1.43388L72.0124 1.94674L71.9576 1.39147C71.9466 1.28024 72.009 1.17458 72.1118 1.13058L72.6247 0.91079Z" fill="#B02F73"/>
<path d="M20.4948 77.5161L26.5624 81.8314C24.435 80.5446 22.4089 79.1007 20.4948 77.5161Z" fill="#3A1729"/>
<path d="M83.6887 77.5161C81.7761 79.1007 79.7483 80.5431 77.6211 81.8314L83.6887 77.5161Z" fill="#3A1729"/>
<path d="M8.63818 82.9736C10.5433 82.672 12.4483 82.5999 14.3534 82.5628C15.3059 82.5424 16.2584 82.5383 17.2109 82.5436C18.1635 82.5421 19.116 82.5559 20.0686 82.5658C21.9737 82.5835 23.8787 82.5881 25.7838 82.5852H31.499H54.3597H77.2205H88.6509L91.5085 82.5841L92.9373 82.5702L94.3661 82.546C96.2713 82.5392 98.1764 82.5566 100.081 82.9736C100.189 82.9971 100.256 83.1032 100.233 83.2104C100.216 83.2887 100.155 83.3459 100.081 83.3621C98.1764 83.7791 96.2713 83.7964 94.3661 83.7896L92.9373 83.7655L91.5085 83.7515L88.6509 83.7505H77.2205H54.3597H31.499H25.7838C23.8787 83.7476 21.9737 83.7521 20.0686 83.7698C19.116 83.7797 18.1635 83.7937 17.2109 83.7922C16.2584 83.7975 15.3059 83.7934 14.3534 83.773C12.4483 83.736 10.5433 83.6637 8.63818 83.3621C8.53097 83.3451 8.45779 83.2444 8.47473 83.1372C8.48833 83.0509 8.55637 82.9866 8.63818 82.9736Z" fill="#3A1729"/>
<path d="M91.1852 82.9389H17.5346C16.3436 82.9389 15.3782 81.9735 15.3782 80.7825V80.7123C15.3782 79.5213 16.3436 78.5559 17.5346 78.5559H91.1852C92.3762 78.5559 93.3416 79.5213 93.3416 80.7123V80.7825C93.3416 81.9735 92.3762 82.9389 91.1852 82.9389Z" fill="#B02F73"/>
<path d="M91.185 83.0211H17.5345C16.3003 83.0211 15.296 82.0169 15.296 80.7826V80.7122C15.296 79.478 16.3003 78.4739 17.5345 78.4739H91.185C92.4192 78.4739 93.4235 79.478 93.4235 80.7122V80.7826C93.4235 82.0169 92.4192 83.0211 91.185 83.0211ZM17.5345 78.6381C16.3907 78.6381 15.4601 79.5686 15.4601 80.7122V80.7826C15.4601 81.9264 16.3907 82.857 17.5345 82.857H91.1851C92.3289 82.857 93.2596 81.9264 93.2596 80.7826V80.7122C93.2596 79.5686 92.3289 78.6381 91.1851 78.6381H17.5345Z" fill="#3A1729"/>
<path d="M91.1851 83.5077H17.5345C16.0319 83.5077 14.8094 82.2853 14.8094 80.7826V80.7123C14.8094 79.2097 16.0319 77.9875 17.5345 77.9875H91.1851C92.6877 77.9875 93.9102 79.2097 93.9102 80.7123V80.7826C93.9102 82.2853 92.6877 83.5077 91.1851 83.5077ZM17.5345 79.1247C16.6589 79.1247 15.9466 79.837 15.9466 80.7123V80.7826C15.9466 81.6582 16.6589 82.3705 17.5345 82.3705H91.1851C92.0607 82.3705 92.7729 81.6582 92.7729 80.7826V80.7123C92.7729 79.837 92.0607 79.1247 91.1851 79.1247H17.5345Z" fill="#3A1729"/>
<path d="M91.2196 79.2053H29.665H24.5115H17.5001C16.6767 79.2053 16.0068 79.8972 16.0068 80.7476C16.0068 81.3708 16.3674 81.9076 16.8838 82.1505C16.7273 81.9067 16.6355 81.6148 16.6355 81.3011C16.6355 80.4508 17.3053 79.7589 18.1288 79.7589H24.4438C24.7707 80.1334 25.8295 80.4083 27.0883 80.4083C28.347 80.4083 29.4059 80.1334 29.7328 79.7589H91.8483C92.0681 79.7589 92.2765 79.8095 92.4646 79.8981C92.197 79.4813 91.7391 79.2053 91.2196 79.2053Z" fill="white"/>
<g style="mix-blend-mode:multiply">
<path d="M18.6764 82.9391H91.2196C92.3915 82.9391 93.3415 81.958 93.3415 80.7476C93.3415 79.5373 92.3915 78.5562 91.2196 78.5562H62.0105C60.8561 79.2069 52.2024 83.2396 16.4784 82.194L18.6764 82.9391Z" fill="#B02F73"/>
</g>
<path d="M102.91 84.9817C102.91 86.9625 80.026 88.5693 51.7986 88.5693C23.5712 88.5693 0.687378 86.9625 0.687378 84.9817C0.687378 84.4256 2.49694 83.8967 5.72793 83.4272H97.8694C101.1 83.8967 102.91 84.4256 102.91 84.9817Z" fill="#CCCCCC"/>
<path d="M77.6211 81.8314H26.5624C34.2811 81.6878 42.9417 81.6077 52.0925 81.6077C61.2416 81.6077 69.9022 81.6878 77.6211 81.8314Z" fill="#CCCCCC"/>
<path d="M79.3076 56.2888V73.1897C79.3076 73.9769 79.1049 74.7273 78.7384 75.4019C77.7373 77.2584 75.519 78.5561 72.9585 78.5561H35.1182C32.9654 78.5561 31.0547 77.64 29.9053 76.2444C29.1898 75.3761 28.769 74.3234 28.769 73.1897V56.2888C28.769 55.2399 29.131 54.2592 29.7549 53.4296C30.8802 51.9253 32.8673 50.9224 35.1182 50.9224H72.9585C73.2639 50.9224 73.5625 50.9408 73.857 50.9777C76.9281 51.3483 79.3076 53.5954 79.3076 56.2888Z" fill="white"/>
<path d="M72.9584 79.1249H35.1182C32.8784 79.1249 30.7656 78.1832 29.4665 76.6059C28.6382 75.6007 28.2003 74.4194 28.2003 73.1898V56.2888C28.2003 55.1518 28.5806 54.045 29.3003 53.0879C30.5807 51.3763 32.756 50.3538 35.1182 50.3538H72.9584C73.2845 50.3538 73.6107 50.3737 73.9276 50.4135C77.3178 50.8225 79.8762 53.3484 79.8762 56.2888V73.1898C79.8762 74.0578 79.6615 74.8935 79.238 75.6734C78.1075 77.7693 75.6423 79.1249 72.9584 79.1249ZM35.1182 51.4911C33.1125 51.4911 31.2778 52.3431 30.2102 53.7703C29.6391 54.5298 29.3376 55.4004 29.3376 56.2888V73.1898C29.3376 74.1523 29.6857 75.0837 30.3442 75.8827C31.4298 77.2008 33.2146 77.9877 35.1182 77.9877H72.9584C75.23 77.9877 77.3022 76.8668 78.2378 75.1321C78.5706 74.5191 78.7391 73.8663 78.7391 73.1898V56.2888C78.7391 53.9233 76.6108 51.8827 73.7888 51.5423C73.5162 51.5082 73.2377 51.4911 72.9584 51.4911H35.1182Z" fill="#B02F73"/>
<path d="M54.5199 46.2244C67.4484 48.362 79.5066 56.216 84.0724 68.2805C87.7623 78.0309 81.0605 78.5564 81.0605 78.5564H54.2546H54.5003H27.6943C27.6943 78.5564 20.9925 78.0309 24.6824 68.2805C29.2482 56.216 41.3064 48.362 54.2349 46.2244" fill="white"/>
<path d="M81.0597 78.5565H27.6937C27.6937 78.5565 23.0053 78.1881 23.6322 72.3624C23.6409 72.4327 23.6508 72.5018 23.6615 72.5698C24.1125 75.4221 27.9955 75.9799 29.292 73.3996L29.8784 72.2327H78.8366L79.465 73.4615C80.7749 76.0229 84.6172 75.452 85.0863 72.6135C85.0999 72.5316 85.112 72.4478 85.1228 72.3624C85.7497 78.1881 81.0597 78.5565 81.0597 78.5565Z" fill="#E6D9E0"/>
<path d="M81.0827 79.1249L27.6499 79.1233C27.5514 79.1157 25.2249 78.9101 23.8901 76.8061C22.6256 74.8132 22.7132 71.8772 24.1505 68.0793C28.4975 56.5927 39.9896 48.0033 54.1421 45.6632C54.223 45.6499 54.3028 45.6543 54.3775 45.6736C54.4522 45.6543 54.5317 45.6499 54.6126 45.6632C68.7651 48.0033 80.2573 56.5927 84.6043 68.0793C86.0416 71.8772 86.1292 74.8133 84.8647 76.8064C83.5299 78.9102 81.2034 79.1157 81.105 79.1233L81.0827 79.1249ZM54.5003 77.9878H81.0339C81.2371 77.9661 82.9331 77.7421 83.9129 76.1838C84.9512 74.5322 84.8225 71.8689 83.5406 68.4817C79.3367 57.373 68.1808 49.0594 54.4271 46.7854C54.4101 46.7825 54.3937 46.779 54.3773 46.7748C54.3612 46.7789 54.3445 46.7825 54.3276 46.7854C40.5738 49.0594 29.4181 57.373 25.2142 68.4817C23.9323 71.8689 23.8038 74.5322 24.8421 76.1837C25.8194 77.7383 27.5091 77.9651 27.7214 77.9878H54.5003Z" fill="#B02F73"/>
<path d="M74.0613 33.9457C73.8045 34.001 73.5518 33.8376 73.4965 33.5808L70.6183 20.1916C70.563 19.9348 70.7264 19.6821 70.9832 19.6268C73.6764 19.0479 76.3292 20.7619 76.9081 23.4551L77.8896 28.0208C78.4685 30.714 76.7545 33.3668 74.0613 33.9457Z" fill="white"/>
<path d="M74.0559 34.0508C73.7537 34.101 73.4616 33.9046 73.3966 33.6023L70.5184 20.2131C70.4514 19.9018 70.6504 19.5939 70.9616 19.527C73.7072 18.9366 76.4181 20.6895 77.0078 23.4337L77.9895 27.9995C78.2752 29.3287 78.0262 30.6896 77.2883 31.8317C76.5504 32.9736 75.412 33.7599 74.0828 34.0457C74.0738 34.0476 74.0648 34.0493 74.0559 34.0508ZM71.233 19.6833C71.1569 19.6959 71.0807 19.7104 71.0045 19.7268C70.8032 19.77 70.6749 19.9689 70.7181 20.1701L73.5964 33.5594C73.6397 33.7607 73.8386 33.8878 74.0399 33.8459C76.6738 33.2797 78.3558 30.6762 77.7897 28.0424L76.8082 23.4767C76.2584 20.919 73.7874 19.2588 71.233 19.6833Z" fill="#3A1729"/>
<path d="M77.4293 25.8799L77.8902 28.0212C78.4685 30.7136 76.7549 33.3666 74.0612 33.9467C73.8047 34.0022 73.5518 33.8375 73.4963 33.5809L72.7299 30.0217C72.8369 30.1686 73.0234 30.2456 73.2122 30.2066L73.5295 30.1375C75.6579 29.6804 77.1756 27.9267 77.4293 25.8799Z" fill="#E6D9E0"/>
<path d="M74.1321 34.5109C73.5862 34.6016 73.0581 34.2469 72.9406 33.7002L70.0623 20.3111C69.9414 19.7483 70.3009 19.1919 70.8635 19.0708C73.8571 18.4271 76.8201 20.34 77.4641 23.3356L78.4456 27.9012C79.0895 30.8968 77.1764 33.8576 74.1809 34.5017L74.1807 34.5017C74.1646 34.5052 74.1484 34.5082 74.1321 34.5109ZM71.194 20.1641L74.0327 33.3693C76.3629 32.8175 77.8393 30.4922 77.3336 28.1403L76.3522 23.5746C75.8466 21.2226 73.5413 19.7084 71.194 20.1641Z" fill="#B02F73"/>
<path d="M26.7885 29.1272C27.0452 29.072 27.298 29.2354 27.3532 29.4921L30.2315 42.8814C30.2867 43.1382 30.1234 43.3909 29.8666 43.4462C27.1734 44.0251 24.5206 42.3111 23.9417 39.6179L22.9602 35.052C22.3812 32.3588 24.0953 29.7062 26.7885 29.1272Z" fill="white"/>
<path d="M29.6502 43.5915C26.9888 44.0338 24.4146 42.3041 23.8418 39.6393L22.8603 35.0736C22.5746 33.7444 22.8236 32.3835 23.5615 31.2414C24.2994 30.0995 25.4376 29.3132 26.767 29.0274C27.0796 28.9598 27.3861 29.1597 27.4532 29.4707L30.3314 42.86C30.3983 43.1713 30.1994 43.4792 29.8882 43.5461C29.8088 43.5631 29.7294 43.5783 29.6502 43.5915ZM26.8098 29.2271C24.176 29.7933 22.4939 32.3969 23.0601 35.0308L24.0416 39.5965C24.6079 42.2302 27.2098 43.9109 29.8451 43.3464C30.0464 43.3031 30.1749 43.1041 30.1316 42.9028L27.2534 29.5136C27.2099 29.3123 27.0068 29.1826 26.8098 29.2271Z" fill="#3A1729"/>
<path d="M29.4342 39.1669L30.2322 42.8813C30.2877 43.1378 30.1228 43.3908 29.8663 43.4463C28.4526 43.7496 27.0489 43.4224 25.9511 42.6518C24.9597 41.9559 24.2175 40.8974 23.9425 39.6186L23.5288 37.6948C24.6561 39.2183 26.6124 40.0282 28.587 39.6041L29.0755 39.4988C29.2538 39.4602 29.3843 39.329 29.4342 39.1669Z" fill="#E6D9E0"/>
<path d="M29.7264 44.0517C26.8211 44.5345 24.011 42.6463 23.3857 39.7373L22.4042 35.1716C21.7603 32.1761 23.6734 29.2154 26.6689 28.5713C27.2327 28.4524 27.7881 28.8099 27.9092 29.3725L30.7875 42.7619C30.9085 43.3247 30.5489 43.8811 29.9863 44.0022C29.8997 44.0207 29.8128 44.0373 29.7264 44.0517ZM26.8171 29.7038C24.487 30.2555 23.0105 32.5808 23.5162 34.9327L24.4977 39.4984C25.0032 41.8504 27.3057 43.363 29.6558 42.9089L26.8171 29.7038Z" fill="#B02F73"/>
<path d="M73.5344 28.2618C75.3425 41.0233 66.4633 52.8345 53.7018 54.6427C40.9403 56.4508 29.1291 47.5716 27.3209 34.8101C25.5128 22.0486 34.3921 10.2374 47.1536 8.42922C59.9151 6.62105 71.7262 15.5003 73.5344 28.2618Z" fill="white"/>
<path d="M54.2784 54.6574C54.0912 54.6885 53.905 54.7171 53.716 54.7439C40.9192 56.5572 29.0331 47.6212 27.2198 34.8243C26.3414 28.6254 27.9297 22.4553 31.6919 17.4507C35.4543 12.4463 40.9403 9.20846 47.1392 8.32801C53.3383 7.44951 59.5083 9.03791 64.5128 12.8001C69.5173 16.5625 72.7573 22.0485 73.6356 28.2476C75.4221 40.8554 66.7726 52.5809 54.2784 54.6574ZM46.6039 8.61715C40.6903 9.59995 35.4704 12.7647 31.8552 17.5735C28.1257 22.5343 26.5513 28.6508 27.422 34.7958C29.2195 47.481 41.0022 56.3391 53.6875 54.5416C66.3697 52.7451 75.2305 40.9616 73.4333 28.2761C72.5625 22.1311 69.3509 16.693 64.3901 12.9635C59.4292 9.23389 53.3129 7.6596 47.1678 8.53033C46.9796 8.55702 46.791 8.58606 46.6039 8.61715Z" fill="#3A1729"/>
<path d="M72.8598 25.0946C73.155 26.1186 73.3807 27.1757 73.5348 28.262C75.3413 41.0233 66.4626 52.8341 53.7016 54.6436C40.9403 56.45 29.1295 47.5712 27.32 34.8102C27.2678 34.4432 27.2243 34.0746 27.1906 33.7105C30.3422 44.7379 41.2207 52.0305 52.897 50.3765C65.291 48.6193 74.0212 37.4289 72.8598 25.0946Z" fill="#E6D9E0"/>
<path d="M54.355 55.1174C54.164 55.1491 53.9743 55.1785 53.7814 55.2056C40.7301 57.0551 28.6073 47.9412 26.7578 34.8897C24.9086 21.8382 34.0151 9.71797 47.0738 7.86606C53.3963 6.97028 59.6891 8.59007 64.7932 12.4272C69.8973 16.2644 73.2016 21.8596 74.0976 28.182C75.9195 41.0409 67.0977 52.9996 54.355 55.1174ZM46.6807 9.07712C40.8858 10.0402 35.7708 13.1414 32.2281 17.8537C28.5736 22.715 27.0307 28.7086 27.884 34.7302C29.6454 47.1608 41.1913 55.841 53.622 54.0797C66.0497 52.3201 74.7326 40.7722 72.9714 28.3414C71.2101 15.9107 59.6639 7.23072 47.2332 8.99219C47.0487 9.01825 46.8639 9.04668 46.6807 9.07712Z" fill="#B02F73"/>
<path d="M73.5446 28.8659C74.2536 33.3774 73.4472 37.7959 71.4872 41.6549C70.0177 44.548 63.0133 50.3078 53.4953 51.8913C44.6701 53.3595 35.8885 49.9111 33.6026 47.6081C30.5534 44.5362 28.4309 40.578 27.7219 36.0665C25.8458 24.1279 35.3254 17.5668 47.9795 15.5782C60.6336 13.5897 71.6685 16.9273 73.5446 28.8659Z" fill="#B02F73"/>
<path d="M53.5848 52.4528C44.4545 53.9701 35.5946 50.4218 33.1991 48.0085C29.9533 44.7385 27.865 40.6395 27.1603 36.1545C26.2421 30.3114 27.8769 25.4382 32.0193 21.6701C35.6359 18.3805 41.1239 16.0763 47.8912 15.0164C54.6583 13.9531 60.5879 14.4598 65.039 16.4816C70.1375 18.7974 73.1882 22.9343 74.1064 28.7774C74.8111 33.2624 74.0808 37.8043 71.9943 41.9123C70.5477 44.7603 63.6638 50.776 53.5887 52.4521C53.5875 52.4523 53.586 52.4526 53.5848 52.4528ZM47.6485 16.2076C41.2953 17.2634 36.1622 19.4391 32.7845 22.5115C28.943 26.0059 27.4286 30.5367 28.2837 35.978C28.9511 40.2251 30.9299 44.1081 34.0063 47.2073C36.1908 49.4083 44.7767 52.7638 53.3985 51.3309C53.4002 51.3307 53.4005 51.3306 53.4021 51.3303C62.9581 49.7405 69.6669 43.9832 70.9803 41.3972C72.9577 37.5039 73.6503 33.201 72.983 28.9539C70.6674 14.2187 54.7877 15.0839 48.0677 16.1399C47.9274 16.162 47.7877 16.1844 47.6485 16.2076Z" fill="#B02F73"/>
<path d="M62.8517 28.3441C62.7983 30.6245 64.0944 32.5044 65.7468 32.543C67.3993 32.5817 68.7819 30.7645 68.8353 28.4841C68.8887 26.2037 67.5926 24.3238 65.9401 24.2852C64.2877 24.2465 62.9051 26.0637 62.8517 28.3441Z" fill="white"/>
<path d="M61.8865 36.8027C61.7176 37.8359 62.2994 38.791 63.1861 38.9359C64.0728 39.0808 64.9284 38.3606 65.0972 37.3274C65.2661 36.2942 64.6843 35.3391 63.7976 35.1942C62.9109 35.0492 62.0553 35.7694 61.8865 36.8027Z" fill="white"/>
<path d="M67.3384 18.4283C70.5592 20.6608 72.7901 24.0701 73.5442 28.865C74.2533 33.3774 73.446 37.7958 71.4878 41.6546C70.0177 44.5478 63.0127 50.3076 53.495 51.892C50.1345 52.452 46.7811 52.2976 43.7887 51.7642C55.4467 49.5672 63.9726 42.5092 65.7947 38.921C68.2827 34.0231 69.3056 28.4145 68.4053 22.6899C68.1659 21.1597 67.8046 19.7413 67.3384 18.4283Z" fill="#B02F73"/>
<path d="M70.02 19.2668C69.8953 19.2875 69.7629 19.2667 69.6446 19.1983L69.5774 19.1595L69.5194 19.102C64.7742 14.2608 56.7712 12.3139 47.5621 13.7608C38.3086 15.2102 31.3047 19.6239 28.3648 25.8538L28.3428 25.8958C28.1857 26.1679 27.8366 26.2626 27.5647 26.1051C27.3007 25.9524 27.2044 25.6217 27.3431 25.3537C30.4503 18.7853 37.7615 14.1479 47.3856 12.6374C56.9558 11.1338 65.3148 13.1962 70.3218 18.2958C70.5052 18.4731 70.553 18.7591 70.4196 18.9896C70.331 19.1431 70.1818 19.2399 70.02 19.2668Z" fill="#B02F73"/>
<path d="M33.9835 42.3599C33.9835 42.3599 28.4351 31.1634 34.0449 25.4727C39.6546 19.7821 48.7895 18.366 48.6681 18.9852C48.6681 18.9852 38.943 23.0214 36.2433 31.6353C34.1614 38.2776 33.9835 42.3599 33.9835 42.3599Z" fill="white"/>
<path d="M25.5243 72.706C25.5243 72.706 27.5234 64.8458 34.3797 64.3351C40.7058 63.864 43.3468 66.8482 42.1732 71.2878C41.5891 73.4974 33.8526 76.0979 29.847 71.9114" fill="white"/>
<path d="M42.1739 71.2887C41.5888 73.4982 33.8525 76.0975 29.8473 71.912C29.7918 71.133 30.6227 70.615 31.3056 70.9939C35.4794 73.3097 41.5063 71.0691 42.02 69.129C42.1324 68.7063 42.2087 68.2961 42.2518 67.9011C42.5326 68.8815 42.5073 70.0265 42.1739 71.2887Z" fill="#E6D9E0"/>
<path d="M25.3406 72.6593C25.2899 71.7563 25.5404 70.9246 25.8861 70.14C26.2241 69.3497 26.6871 68.6144 27.2131 67.9291C27.7454 67.2486 28.3162 66.5894 28.9801 66.019C29.6415 65.4482 30.3809 64.9566 31.1806 64.5836C31.9789 64.2079 32.8372 63.9584 33.7077 63.8371L34.3618 63.7667C34.5745 63.755 34.7866 63.7397 34.9997 63.7314C35.4263 63.7179 35.8544 63.7128 36.2844 63.7335C37.1432 63.7708 38.0106 63.8809 38.8614 64.1286C39.7095 64.3713 40.5478 64.7629 41.2588 65.3614C41.9732 65.9532 42.5148 66.7811 42.7752 67.6723C43.0406 68.5642 43.0648 69.4933 42.937 70.3684C42.911 70.5894 42.8637 70.8044 42.8219 71.0208L42.7453 71.3407L42.726 71.4207C42.7193 71.4479 42.7039 71.4888 42.6928 71.5222L42.6155 71.7313C42.3653 72.2422 42.0063 72.5787 41.6453 72.8685C40.9123 73.4379 40.1068 73.7996 39.2844 74.0881C37.6351 74.6381 35.8765 74.8453 34.1361 74.6079C33.9188 74.5775 33.7022 74.5433 33.4873 74.4941C33.2709 74.4545 33.0586 74.3921 32.8452 74.3353C32.6318 74.2789 32.4226 74.2033 32.2094 74.141C32.0025 74.0596 31.7876 73.9951 31.5859 73.8973C31.3831 73.8023 31.1798 73.7063 30.9953 73.5765C30.8033 73.4601 30.6272 73.3186 30.4604 73.1682C30.128 72.8667 29.8571 72.4901 29.71 72.0425C29.674 71.9326 29.7336 71.8143 29.8435 71.7783C29.8834 71.7651 29.9244 71.7647 29.9621 71.7747L29.9839 71.7804C30.211 71.8399 30.3914 71.9334 30.5786 72.0129C30.7682 72.0889 30.9303 72.1902 31.106 72.2712C31.1916 72.3146 31.2739 72.3614 31.3552 72.4094C31.4392 72.4534 31.5261 72.4926 31.6079 72.539C31.6929 72.5803 31.771 72.6329 31.8569 72.6726C31.9423 72.713 32.0257 72.7569 32.109 72.8019C32.771 73.1751 33.5286 73.3728 34.2931 73.4814C35.8281 73.6935 37.4378 73.5068 38.917 73.0118C39.6501 72.7571 40.3691 72.4236 40.9418 71.9749C41.2246 71.7551 41.4676 71.4939 41.5812 71.2584C41.5894 71.2304 41.5986 71.2033 41.6093 71.1765C41.6146 71.161 41.6205 71.1545 41.6261 71.1315L41.6429 71.0609L41.7109 70.7785C41.7465 70.5897 41.789 70.4009 41.8105 70.2116C41.9219 69.4556 41.8926 68.6943 41.6865 68.001C41.4814 67.3072 41.081 66.6932 40.5233 66.2291C39.9685 65.762 39.2808 65.4307 38.5442 65.2208C37.8079 65.0057 37.0251 64.9035 36.2354 64.8696C35.8405 64.8503 35.4421 64.8554 35.0435 64.8678L34.4447 64.901L33.8672 64.9632C33.1021 65.07 32.3564 65.2869 31.6601 65.6148C30.2672 66.2685 29.0589 67.3279 28.1618 68.6224C27.9399 68.9476 27.7289 69.2807 27.5324 69.6235C27.3308 69.963 27.1376 70.3084 26.948 70.6574C26.574 71.3583 26.2048 72.0652 25.7081 72.7527L25.6996 72.7643C25.6355 72.8532 25.5114 72.8733 25.4226 72.8091C25.3724 72.7728 25.3443 72.7165 25.3406 72.6593Z" fill="#B02F73"/>
<path d="M83.1662 72.7982C83.1662 72.7982 83.824 64.7144 77.5039 62.0079C71.6725 59.5108 68.2064 61.4772 67.8768 66.0575C67.7128 68.3371 74.188 73.306 79.3348 70.6446L83.1662 72.7982Z" fill="white"/>
<path d="M79.3343 70.6451C74.1882 73.3056 67.7131 68.338 67.8761 66.0581C67.97 64.756 68.3174 63.6647 68.9011 62.8283C68.8137 63.216 68.7529 63.6287 68.7221 64.0651C68.5789 66.0669 73.5535 70.1408 78.2527 69.3038C79.0216 69.1667 79.6394 69.9262 79.3343 70.6451Z" fill="#E6D9E0"/>
<path d="M82.9774 72.7827C82.7305 71.9713 82.6103 71.1828 82.4838 70.3985C82.4174 70.0068 82.3468 69.6174 82.2663 69.2309C82.1915 68.8429 82.1 68.4595 81.9955 68.0799C81.5668 66.5645 80.7672 65.1704 79.6616 64.1003C79.1093 63.5643 78.4744 63.1174 77.7852 62.7682L77.259 62.522L76.7033 62.2965C76.3303 62.1555 75.955 62.0215 75.5752 61.9117C74.8172 61.6877 74.0435 61.5305 73.2773 61.4952C72.5124 61.4548 71.7544 61.5452 71.0782 61.8071C70.4002 62.0653 69.8222 62.5163 69.4032 63.106C68.9834 63.6951 68.7089 64.4057 68.569 65.157C68.5281 65.3432 68.5071 65.5354 68.4796 65.7256L68.4522 66.0147L68.4452 66.087C68.443 66.1106 68.4465 66.1186 68.4465 66.135C68.4478 66.1639 68.448 66.1925 68.4466 66.2217C68.4777 66.4812 68.6228 66.8071 68.819 67.1067C69.2152 67.7169 69.7872 68.2655 70.3981 68.7442C71.6368 69.6922 73.0991 70.3908 74.62 70.688C75.3784 70.8331 76.159 70.8918 76.9064 70.7535C76.9997 70.738 77.0928 70.7234 77.1866 70.7128C77.2807 70.7032 77.3716 70.6787 77.4655 70.6673C77.558 70.6499 77.6529 70.641 77.7466 70.6266C77.8391 70.6075 77.9322 70.5901 78.0273 70.5767C78.2197 70.557 78.4059 70.5139 78.6099 70.5034C78.8128 70.489 79.0137 70.4589 79.2477 70.4763L79.2704 70.4779C79.3857 70.4864 79.4722 70.5868 79.4637 70.7021C79.4605 70.744 79.4454 70.7818 79.4218 70.813C79.1375 71.1887 78.7592 71.4572 78.347 71.6345C78.1402 71.7227 77.9279 71.7995 77.7086 71.8473C77.4918 71.9102 77.2685 71.9352 77.0459 71.9593C76.8233 71.9863 76.5992 71.9778 76.377 71.9876C76.1552 71.9774 75.9328 71.9811 75.7125 71.9653C75.4923 71.9498 75.2713 71.9399 75.0537 71.9072C74.8344 71.8841 74.6184 71.8461 74.403 71.8045C72.6797 71.4646 71.0834 70.6984 69.7016 69.6433C69.0173 69.1036 68.3725 68.5003 67.8639 67.724C67.6163 67.3328 67.3859 66.8981 67.3149 66.3336L67.3095 66.1107C67.3098 66.0755 67.3085 66.0318 67.3109 66.0039L67.3186 65.9219L67.3498 65.5945C67.3805 65.3763 67.4055 65.1576 67.4525 64.94C67.6155 64.0708 67.9397 63.1997 68.4799 62.4421C69.0154 61.6836 69.7961 61.076 70.6638 60.7479C71.5305 60.4122 72.4506 60.3138 73.3316 60.3592C74.2167 60.4008 75.0728 60.5779 75.8973 60.8211C76.3108 60.9409 76.714 61.0846 77.1133 61.2357C77.3122 61.3127 77.508 61.396 77.7054 61.476L78.3012 61.7546C79.0855 62.1518 79.8162 62.6661 80.4497 63.2804C81.0852 63.8926 81.6251 64.5973 82.0657 65.3518C82.5088 66.1067 82.835 66.9154 83.118 67.7317C83.3933 68.5506 83.5928 69.3963 83.656 70.2534C83.7289 71.1078 83.696 71.9757 83.3551 72.8134C83.3138 72.915 83.1981 72.9638 83.0966 72.9225C83.0393 72.8992 82.9986 72.8522 82.9817 72.7973L82.9774 72.7827Z" fill="#B02F73"/>
<path d="M75.4998 77.7759H33.7985C31.9059 77.7759 30.3717 76.2418 30.3717 74.3493V74.1743H78.9264V74.3493C78.9264 76.2418 77.3923 77.7759 75.4998 77.7759Z" fill="#B02F73"/>
<path d="M78.9269 74.1741V74.349C78.9269 76.2411 77.3916 77.7764 75.4995 77.7764H33.7991C31.9055 77.7764 30.3716 76.2411 30.3716 74.349V74.1741H30.5237C30.9545 75.573 32.2581 76.5909 33.7991 76.5909H75.4995C77.0392 76.5909 78.344 75.573 78.7748 74.1741H78.9269Z" fill="#E6D9E0"/>
<path d="M75.4998 78.3445H33.7985C31.5955 78.3445 29.8032 76.5521 29.8032 74.3492V73.6057H79.495V74.3492C79.495 76.5521 77.7028 78.3445 75.4998 78.3445ZM30.9676 74.7429C31.1599 76.1332 32.3562 77.2073 33.7985 77.2073H75.4998C76.9421 77.2073 78.1384 76.1332 78.3307 74.7429H30.9676Z" fill="#B02F73"/>
<path d="M32.5603 75.3107H78.1144C78.1728 75.1546 78.2186 74.9919 78.2496 74.8237H31.0487C31.2447 75.8883 32.0194 76.744 33.0208 77.0267C32.6555 76.737 32.3619 76.3557 32.1741 75.9157C32.0525 75.631 32.2589 75.3107 32.5603 75.3107Z" fill="white"/>
<path d="M71.5842 77.7385H38.0427C36.2527 77.7385 34.7485 76.4724 34.5508 74.7987L31.7115 50.7779C31.48 48.82 33.1092 47.1077 35.2033 47.1077H74.4236C76.5177 47.1077 78.1469 48.82 77.9154 50.7779L75.076 74.7987C74.8782 76.4724 73.3742 77.7385 71.5842 77.7385Z" fill="#EDE8EA"/>
<path d="M57.0059 65.0339C57.0125 65.0312 57.0192 65.0285 57.0258 65.0258C57.2324 64.9396 57.4247 65.1643 57.3077 65.3551C56.9717 65.9027 56.4623 66.3518 55.8158 66.6101C54.3547 67.1937 52.6584 66.5688 51.9284 65.175C51.0863 63.5672 51.7931 61.61 53.428 60.895C54.0463 60.6245 54.7051 60.5722 55.3182 60.7042C55.5203 60.7477 55.5497 61.0238 55.3601 61.1064L55.3536 61.1092C54.2252 61.6028 53.7403 62.9562 54.3292 64.0638C54.836 65.017 56.0055 65.4398 57.0059 65.0339Z" fill="white"/>
<path d="M71.1828 54.6682C71.0533 54.5491 70.928 54.4248 70.8016 54.3035C70.38 53.8954 69.9594 53.4884 69.5347 53.0823C69.5078 53.0564 69.4571 53.0315 69.426 53.0408C69.082 53.1309 68.7569 53.2685 68.4482 53.4457C67.9664 53.7212 67.5936 54.1181 67.26 54.5542C66.9036 55.0161 66.5908 55.5083 66.3288 56.0293C66.0636 56.5544 65.8159 57.0879 65.5652 57.6193C65.5496 57.6494 65.5434 57.7064 65.5611 57.7261C65.6637 57.8348 65.7746 57.9362 65.8906 58.0481C66.1402 57.7891 66.3785 57.5416 66.6188 57.293C66.941 56.9584 67.2632 56.6249 67.5863 56.2913C67.7023 56.1732 67.8514 56.1495 67.9788 56.2251C68.1612 56.3328 68.1881 56.5627 68.0327 56.7223C67.496 57.2806 66.9564 57.8369 66.4198 58.3942C66.3939 58.4211 66.3681 58.447 66.3442 58.4728C66.3546 58.4904 66.3578 58.4999 66.364 58.505C66.4582 58.5973 66.5566 58.6863 66.6468 58.7805C66.6882 58.823 66.7202 58.8209 66.77 58.7981C67.7851 58.3185 68.7682 57.784 69.6559 57.09C69.9833 56.8341 70.2889 56.5555 70.5457 56.2271C70.8782 55.7993 71.0833 55.3125 71.2169 54.7914C71.2304 54.7387 71.2212 54.7045 71.1828 54.6682ZM70.2235 55.5309C69.8123 55.9505 69.1432 55.964 68.7258 55.5589C68.3062 55.1549 68.2957 54.4859 68.7019 54.0622C69.1007 53.6468 69.771 53.6375 70.1915 54.0415C70.6079 54.4434 70.6233 55.1218 70.2235 55.5309Z" fill="white"/>
<path d="M71.3309 54.1169C70.9102 53.7105 70.4999 53.3142 70.0887 52.9165C70.0881 52.9058 70.0889 52.8941 70.0886 52.8823C70.4958 52.8704 70.904 52.8589 71.3168 52.8462C71.3749 53.2829 71.3702 53.6923 71.3309 54.1169Z" fill="black"/>
<path d="M66.1375 55.061C65.8188 55.6674 65.4997 56.275 65.1751 56.8928C64.6956 56.8122 64.1997 56.7298 63.6903 56.6451C64.1123 56.0352 64.5729 55.4892 65.2589 55.1853C65.5548 55.0533 65.9129 55.0068 66.1375 55.061Z" fill="black"/>
<path d="M68.8961 59.6904C68.6072 60.0717 68.2503 60.3776 67.8572 60.6661C67.7524 60.1464 67.6493 59.6378 67.5479 59.1393C68.1549 58.7915 68.7482 58.4519 69.3456 58.1091C69.3963 58.2806 69.3936 58.4697 69.3651 58.659C69.3051 59.0464 69.1291 59.3807 68.8961 59.6904Z" fill="black"/>
<path d="M69.8524 55.1925C69.6442 55.4058 69.2921 55.4111 69.0732 55.2037C68.8482 54.9905 68.8459 54.6273 69.0683 54.4035C69.277 54.1924 69.6359 54.1899 69.8481 54.3988C70.0697 54.6166 70.0717 54.969 69.8524 55.1925Z" fill="#B02F73"/>
<g style="mix-blend-mode:screen">
<path d="M73.3037 74.8661L76.1432 50.8453C76.2209 50.1889 76.018 49.541 75.5721 49.021C75.0673 48.4321 74.3199 48.0874 73.5099 48.0594C73.5104 48.0576 73.511 48.0556 73.5114 48.054C72.3507 52.0426 65.8767 74.2864 35.2014 75.1316C35.473 76.2803 36.5813 77.117 37.8914 77.117H70.5654C71.9748 77.117 73.152 76.1493 73.3037 74.8661Z" fill="#2C2026"/>
</g>
<path d="M36.0093 75.2703L33.17 51.2493C33.0878 50.5539 33.3017 49.8687 33.7726 49.3195C34.3242 48.676 35.1497 48.3069 36.0377 48.3069H75.2579C75.563 48.3069 75.8597 48.3536 76.1415 48.437C76.0832 48.3499 76.0209 48.2644 75.951 48.1829C75.3994 47.5396 74.5739 47.1707 73.686 47.1707H34.4658C33.5778 47.1707 32.7523 47.5397 32.2007 48.1832C31.7299 48.7324 31.5159 49.4176 31.5982 50.113L34.4374 74.1338C34.5637 75.2018 35.3621 76.0598 36.4198 76.3731C36.2024 76.047 36.0571 75.6741 36.0093 75.2703Z" fill="#B6AEB2"/>
<path d="M71.433 78.3071H37.8915C35.8109 78.3071 34.0669 76.8274 33.835 74.8655L30.9956 50.8448C30.8693 49.7769 31.2015 48.7365 31.9311 47.9157C32.7085 47.0407 33.8462 46.5391 35.0521 46.5391H74.2724C75.4782 46.5391 76.6158 47.0407 77.3934 47.9157C78.123 48.7365 78.4552 49.7769 78.3289 50.8448L75.4895 74.8655C75.2576 76.8274 73.5136 78.3071 71.433 78.3071ZM35.0521 47.6762C34.171 47.6762 33.343 48.039 32.7811 48.6713C32.2704 49.2458 32.0375 49.9704 32.1251 50.7111L34.9643 74.732C35.1287 76.1219 36.3871 77.1699 37.8915 77.1699H71.433C72.9374 77.1699 74.1959 76.1219 74.3602 74.732L77.1994 50.7111C77.287 49.9704 77.0541 49.2458 76.5434 48.6713C75.9814 48.039 75.1536 47.6762 74.2724 47.6762H35.0521Z" fill="#B02F73"/>
<g style="mix-blend-mode:multiply">
<path d="M41.5709 62.596H39.3837C38.5987 62.596 37.9624 61.9596 37.9624 61.1746V53.9525C37.9624 53.1675 38.5987 52.5312 39.3837 52.5312H41.5709C42.356 52.5312 42.9922 53.1675 42.9922 53.9525V61.1746C42.9922 61.9596 42.356 62.596 41.5709 62.596Z" fill="#EDE8EA"/>
</g>
<path d="M57.3968 64.6429C57.4034 64.6402 57.4102 64.6373 57.4169 64.6346C57.6234 64.5484 57.8156 64.7733 57.6986 64.9641C57.3626 65.5117 56.8532 65.9606 56.2067 66.2189C54.7456 66.8025 53.0495 66.1778 52.3195 64.784C51.4773 63.1761 52.184 61.219 53.8189 60.504C54.4372 60.2335 55.0961 60.181 55.7092 60.313C55.9114 60.3566 55.9406 60.6328 55.7509 60.7154L55.7446 60.7181C54.6162 61.2116 54.1311 62.565 54.7201 63.6727C55.2269 64.6259 56.3964 65.0488 57.3968 64.6429Z" fill="#3A1729"/>
</svg>
