<svg width="101" height="121" viewBox="0 0 101 121" fill="none" xmlns="http://www.w3.org/2000/svg">
<path d="M50.3575 120.598H99.2885C100.49 88.9655 70.1546 72.55 50.356 72.55C30.5574 72.55 0.222244 88.9655 1.42379 120.598H50.3544" fill="#FFB2DB"/>
<path d="M76.7001 120.598C76.1187 115.807 75.5689 112.894 75.5689 112.894C91.1093 116.013 100.712 109.535 100.712 109.535C100.712 109.535 91.8119 72.55 50.3559 72.55C8.90019 72.55 0 109.535 0 109.535C0 109.535 9.60248 116.013 25.1432 112.894C25.1432 112.894 24.5931 115.807 24.0121 120.598H76.7001Z" fill="#C93082"/>
<path d="M75.9731 111.218C84.3377 111.374 92.5982 110.135 100.237 107.911C100.569 108.943 100.712 109.536 100.712 109.536C100.712 109.536 91.2738 115.895 75.9731 112.969V111.218Z" fill="#7B375B"/>
<path d="M24.7387 111.218C16.3745 111.374 8.11366 110.135 0.47457 107.911C0.142557 108.943 0 109.536 0 109.536C0 109.536 9.43832 115.895 24.7387 112.969V111.218Z" fill="#7B375B"/>
<path d="M34.9368 74.4861C34.107 74.9889 33.647 75.5403 33.647 76.1187C33.647 78.4669 41.1913 81.0467 50.4979 81.0467C59.8045 81.0467 67.3488 78.4669 67.3488 76.1187C67.3488 75.5923 66.9671 75.0888 66.2741 74.6235C61.592 73.3161 56.3115 72.55 50.356 72.55C44.6111 72.55 39.4942 73.2622 34.9368 74.4861Z" fill="#7B375B"/>
<path d="M26.2224 101.071C25.783 100.967 23.4913 114.368 22.8467 120.598H24.7388C24.6333 113.877 26.6537 101.173 26.2224 101.071Z" fill="#7B375B"/>
<path d="M74.4896 101.071C74.929 100.967 77.221 114.368 77.8656 120.598H75.9732C76.0787 113.877 74.0586 101.173 74.4896 101.071Z" fill="#7B375B"/>
<path d="M38.364 75.0854C38.1736 76.3676 39.1489 77.5809 40.7285 78.0502C43.7129 78.9368 46.959 79.425 50.3563 79.425C53.7532 79.425 56.9993 78.9368 59.984 78.0502C61.5633 77.5809 62.5386 76.3676 62.3486 75.0854L59.1114 53.2681H41.6011L38.364 75.0854Z" fill="#FFB2DB"/>
<path d="M73.5813 39.3093C71.3614 43.0338 71.5639 49.0187 75.5681 51.0834C79.5717 53.1481 85.3678 47.5783 86.4773 42.4228C87.3757 38.2471 85.1225 33.3462 81.0141 33.022C76.4521 32.6619 75.8009 35.5848 73.5813 39.3093Z" fill="#FFB2DB"/>
<path d="M75.751 38.0725C75.9193 37.153 76.379 36.2454 77.1818 35.6316C77.5774 35.3167 78.0772 35.1388 78.5782 35.03C78.8335 34.9905 79.0898 34.9453 79.3486 34.9576C79.4775 34.9576 79.6073 34.9527 79.7362 34.9573L80.119 35.0025C80.631 35.0391 81.1451 35.2005 81.6058 35.4366C82.075 35.6734 82.4461 36.0479 82.7345 36.4517C83.2905 37.2808 83.5272 38.2501 83.4792 39.1907L83.4432 39.1912C83.2856 38.2751 82.9969 37.3686 82.4339 36.6403C81.8956 35.9012 81.0504 35.3912 80.0759 35.2698L79.7136 35.2139C79.5924 35.2056 79.4708 35.2068 79.3486 35.2022C79.1036 35.1818 78.8638 35.2173 78.6225 35.2457C78.1508 35.3324 77.6767 35.4804 77.2924 35.7651C76.5049 36.3079 75.999 37.1757 75.7867 38.0773L75.751 38.0725Z" fill="#E8A0C6"/>
<path d="M73.5808 39.3089C75.724 35.7131 76.4162 32.8738 80.5658 33.0051C80.5683 33.6462 80.5533 34.2898 80.4998 34.9388C80.4998 34.9388 79.4985 42.6819 78.8026 45.162C77.9977 48.0312 77.0984 49.8731 76.3441 51.3837C76.0796 51.3121 75.8199 51.2129 75.5679 51.083C71.5637 49.0183 71.3612 43.0334 73.5808 39.3089Z" fill="black" fill-opacity="0.3"/>
<path d="M27.1308 39.3093C29.3504 43.0338 29.1479 49.0187 25.1437 51.0834C21.1398 53.1481 15.3437 47.5783 14.2342 42.4228C13.3355 38.2471 15.5887 33.3462 19.6974 33.022C24.2591 32.6619 24.9112 35.5848 27.1308 39.3093Z" fill="#FFB2DB"/>
<path d="M24.9249 38.0771C24.7126 37.1754 24.2071 36.3073 23.4192 35.7649C23.0353 35.4801 22.5605 35.3321 22.0889 35.2454C21.8476 35.217 21.6081 35.1818 21.3625 35.2022C21.2409 35.2065 21.119 35.2053 20.9977 35.2136L20.6351 35.2698C19.661 35.3912 18.816 35.9012 18.2781 36.6403C17.7148 37.3686 17.4261 38.2748 17.2688 39.1907H17.2321C17.1841 38.2501 17.4212 37.2808 17.9766 36.4517C18.2652 36.0479 18.6364 35.6731 19.1056 35.4364C19.566 35.2002 20.081 35.0388 20.593 35.0022L20.9754 34.9573C21.1043 34.9527 21.2342 34.9576 21.3631 34.9576C21.6218 34.9453 21.8778 34.9902 22.1335 35.0297C22.6342 35.1386 23.1342 35.3164 23.5298 35.6313C24.3326 36.2451 24.7924 37.1527 24.961 38.0722L24.9249 38.0771Z" fill="#E8A0C6"/>
<path d="M27.1308 39.3089C24.9879 35.7131 24.2954 32.8738 20.1455 33.0051C20.1433 33.6462 20.1583 34.2898 20.2117 34.9388C20.2117 34.9388 21.2134 42.6819 21.9093 45.162C22.7142 48.0312 23.6135 49.8731 24.3678 51.3837C24.6323 51.3121 24.8917 51.2129 25.1437 51.083C29.1479 49.0183 29.3504 43.0334 27.1308 39.3089Z" fill="black" fill-opacity="0.3"/>
<path d="M59.1114 53.2686H41.6004L39.3408 68.5009C43.5107 70.1464 48.2327 71.083 53.2305 71.083C56.1384 71.083 58.9512 70.7613 61.6191 70.1737L59.1114 53.2686Z" fill="black" fill-opacity="0.3"/>
<path d="M66.1887 69.0429H34.5231C28.1006 69.0429 22.8464 64.1554 22.8464 58.1812V18.3269C22.8464 12.353 28.1006 7.46484 34.5231 7.46484H66.1887C72.6108 7.46484 77.8657 12.353 77.8657 18.3269V58.1812C77.8657 64.1554 72.6108 69.0429 66.1887 69.0429Z" fill="#FFB2DB"/>
<path d="M48.5277 32.3459C48.3361 33.2177 48.1473 34.0888 47.9794 34.9637C47.7998 35.8359 47.6354 36.7111 47.4836 37.5874C47.1806 39.34 46.8933 41.0952 46.7131 42.8607C46.6205 43.7376 46.5122 44.6354 46.4891 45.4991C46.5017 45.9276 46.5671 46.3573 46.7557 46.7336C46.9393 47.1113 47.2623 47.4147 47.6755 47.5794C48.0843 47.7517 48.5546 47.8051 49.0199 47.7927C49.4871 47.7821 49.9552 47.7121 50.4165 47.6139C51.3425 47.423 52.2413 47.1122 53.1118 46.7462C52.2771 47.1819 51.3863 47.5266 50.4603 47.7761C49.995 47.8937 49.5173 47.9801 49.0292 48.008C48.5432 48.0361 48.0368 48.0002 47.5644 47.8206C47.3253 47.7387 47.1111 47.599 46.9152 47.4431C46.735 47.2715 46.5749 47.0777 46.4703 46.8613C46.2484 46.4313 46.175 45.9623 46.1555 45.5054C46.1688 44.5912 46.2651 43.7183 46.3487 42.8257C46.5607 41.0533 46.8436 39.29 47.2071 37.5415C47.5737 35.7937 47.997 34.0561 48.5277 32.3459Z" fill="#D996B9"/>
<path d="M50.3562 57.0295C52.7047 57.0295 55.4191 56.6547 58.4143 55.0308C61.4262 53.3978 59.3678 52.3291 57.2307 53.1112C54.009 54.2901 51.8854 54.2741 50.3562 54.2741C48.827 54.2741 46.7034 54.2901 43.4817 53.1112C41.3446 52.3291 39.2862 53.3978 42.2981 55.0308C45.293 56.6547 48.0077 57.0295 50.3562 57.0295Z" fill="white"/>
<path d="M83.771 24.8872C83.771 21.5309 81.8486 18.6977 79.2117 17.7766C80.3728 14.6193 78.8531 10.5828 75.2216 7.96047C70.8632 4.81349 65.1279 4.90074 62.4123 8.15536C62.3681 8.20847 62.3339 8.26587 62.2919 8.32012C61.6072 3.771 55.6961 0.366254 48.6383 0.610231C42.8478 0.810577 38.0281 3.40934 36.3023 6.86603C33.3049 4.96217 28.6595 5.30746 24.9851 7.96047C21.3537 10.5828 19.8337 14.6193 20.9948 17.7766C18.3575 18.6977 16.4358 21.5309 16.4358 24.8872C16.4358 27.7514 17.8373 30.2331 19.8868 31.4725C18.754 32.6384 18.023 34.4527 18.023 36.496C18.023 40.0153 20.1824 42.8678 22.8462 42.8678C25.51 42.8678 27.6693 40.0153 27.6693 36.496C27.6693 34.4527 26.938 32.6384 25.8059 31.4725C27.2108 30.6226 28.305 29.188 28.8576 27.4466C31.1974 27.6662 33.861 26.6854 35.8231 24.6481C36.6244 23.8162 37.2187 22.8946 37.6165 21.9503C39.6052 23.0545 42.4051 23.2453 45.0843 22.2442C45.1639 22.2143 45.2361 22.1767 45.3145 22.1452C46.6518 23.0424 48.4156 23.5929 50.3558 23.5929C52.296 23.5929 54.0595 23.0424 55.3968 22.1452C55.4752 22.1765 55.5474 22.2143 55.627 22.2442C58.3062 23.2453 61.1061 23.0545 63.0945 21.9503C63.4925 22.8946 64.0865 23.8162 64.8879 24.6481C66.713 26.5427 69.1457 27.5275 71.3594 27.4799C71.9151 29.2061 73.0046 30.628 74.4009 31.4725C73.2681 32.6384 72.5371 34.4527 72.5371 36.496C72.5371 40.0153 74.6965 42.8678 77.3603 42.8678C80.0238 42.8678 82.1831 40.0153 82.1831 36.496C82.1831 34.4527 81.4521 32.6384 80.3197 31.4725C82.3692 30.2331 83.771 27.7514 83.771 24.8872Z" fill="#F457AA"/>
<path d="M38.7811 36.1819C38.7811 37.9633 37.6926 39.4075 36.3503 39.4075C35.0083 39.4075 33.9202 37.9633 33.9202 36.1819C33.9202 34.4004 35.0083 32.9563 36.3503 32.9563C37.6926 32.9563 38.7811 34.4004 38.7811 36.1819Z" fill="#59153A"/>
<path d="M65.5112 36.1819C65.5112 37.9633 64.4233 39.4075 63.081 39.4075C61.7387 39.4075 60.6509 37.9633 60.6509 36.1819C60.6509 34.4004 61.7387 32.9563 63.081 32.9563C64.4233 32.9563 65.5112 34.4004 65.5112 36.1819Z" fill="#59153A"/>
<path d="M35.0293 45.8464C35.0293 47.2318 33.2872 48.355 31.1384 48.355C28.9896 48.355 27.2476 47.2318 27.2476 45.8464C27.2476 44.4608 28.9896 43.3379 31.1384 43.3379C33.2872 43.3379 35.0293 44.4608 35.0293 45.8464Z" fill="#FFA3D4"/>
<path d="M73.7478 45.8464C73.7478 47.2318 72.0057 48.355 69.8569 48.355C67.7078 48.355 65.9661 47.2318 65.9661 45.8464C65.9661 44.4608 67.7078 43.3379 69.8569 43.3379C72.0057 43.3379 73.7478 44.4608 73.7478 45.8464Z" fill="#FFA3D4"/>
<path d="M29.8809 32.0933C30.681 31.3815 31.6391 30.8393 32.6511 30.4119C33.6746 30.0055 34.7602 29.727 35.8821 29.6252C36.4449 29.56 37.0139 29.5807 37.5807 29.6137C38.1429 29.678 38.7045 29.775 39.2371 29.9547C40.2986 30.3106 41.2998 30.8295 42.0975 31.5615L42.0595 31.6068C41.0792 31.1427 40.0773 30.7681 39.0523 30.5026C38.0291 30.2489 36.9843 30.0319 35.917 30.0835C34.85 30.1234 33.7811 30.3361 32.7656 30.6783C31.7526 31.0233 30.7661 31.49 29.9237 32.1346L29.8809 32.0933Z" fill="#FF6BB9"/>
<path d="M70.4757 31.7173C69.5275 31.029 68.4586 30.4908 67.3527 30.0757C66.2465 29.6641 65.078 29.3831 63.9049 29.322C63.6142 29.2939 63.318 29.3206 63.0261 29.3188C62.7332 29.3484 62.4407 29.3564 62.151 29.4075L61.7144 29.4655L61.2808 29.5433C60.9917 29.5915 60.7032 29.6521 60.415 29.7106C59.2601 29.954 58.1208 30.2879 56.9782 30.6662L56.948 30.6162C57.945 29.9515 59.0792 29.4836 60.2601 29.155C61.445 28.8361 62.7079 28.7356 63.9453 28.8642C65.1829 28.9888 66.3656 29.3375 67.4759 29.8128C68.5756 30.3091 69.6114 30.9199 70.5167 31.6745L70.4757 31.7173Z" fill="#FF6BB9"/>
</svg>
