<svg width="80" height="61" viewBox="0 0 80 61" fill="none" xmlns="http://www.w3.org/2000/svg">
<path d="M12.5 0C9.18479 0 6.00537 1.33891 3.66117 3.72218C1.31696 6.10546 0 9.33787 0 12.7083V19.3167H80V12.7083C80 9.33787 78.683 6.10546 76.3388 3.72218C73.9946 1.33891 70.8152 0 67.5 0H12.5ZM0 48.2917V24.4H80V48.2917C80 51.6621 78.683 54.8945 76.3388 57.2778C73.9946 59.6611 70.8152 61 67.5 61H12.5C9.18479 61 6.00537 59.6611 3.66117 57.2778C1.31696 54.8945 0 51.6621 0 48.2917ZM54.5 41.6833C53.837 41.6833 53.2011 41.9511 52.7322 42.4278C52.2634 42.9044 52 43.5509 52 44.225C52 44.8991 52.2634 45.5456 52.7322 46.0222C53.2011 46.4989 53.837 46.7667 54.5 46.7667H65.5C66.163 46.7667 66.7989 46.4989 67.2678 46.0222C67.7366 45.5456 68 44.8991 68 44.225C68 43.5509 67.7366 42.9044 67.2678 42.4278C66.7989 41.9511 66.163 41.6833 65.5 41.6833H54.5Z" fill="#9E2E6A"/>
</svg>
