<svg width="67" height="59" viewBox="0 0 67 59" fill="none" xmlns="http://www.w3.org/2000/svg">
<path d="M42.2424 5.75836C40.3107 5.75836 38.4582 6.51639 37.0924 7.86567C35.7265 9.21496 34.9592 11.045 34.9592 12.9532C34.9592 14.8614 35.7265 16.6914 37.0924 18.0407C38.4582 19.39 40.3107 20.148 42.2424 20.148C44.174 20.148 46.0265 19.39 47.3923 18.0407C48.7582 16.6914 49.5255 14.8614 49.5255 12.9532C49.5255 11.045 48.7582 9.21496 47.3923 7.86567C46.0265 6.51639 44.174 5.75836 42.2424 5.75836ZM29.1327 12.9532C29.1322 10.7488 29.7014 8.58086 30.7862 6.65455C31.871 4.72824 33.4356 3.10735 35.3319 1.94538C37.2281 0.783405 39.3932 0.118803 41.6221 0.0145061C43.851 -0.089791 46.07 0.369669 48.0689 1.34938C50.0676 0.370836 52.286 -0.0876932 54.5142 0.0171842C56.7424 0.122061 58.9067 0.786876 60.8021 1.94871C62.6976 3.11055 64.2617 4.73098 65.3462 6.65664C66.4308 8.58231 67 10.7495 67 12.9532C67 15.1568 66.4308 17.324 65.3462 19.2497C64.2617 21.1754 62.6976 22.7958 60.8021 23.9576C58.9067 25.1195 56.7424 25.7843 54.5142 25.8892C52.286 25.994 50.0676 25.5355 48.0689 24.557C46.07 25.5367 43.851 25.9961 41.6221 25.8918C39.3932 25.7876 37.2281 25.1229 35.3319 23.961C33.4356 22.799 31.871 21.1781 30.7862 19.2518C29.7014 17.3255 29.1322 15.1575 29.1327 12.9532ZM53.1671 20.1135C53.406 20.1365 53.6488 20.148 53.8954 20.148C54.8812 20.1459 55.8563 19.9461 56.7617 19.5607C57.667 19.1754 58.4838 18.6125 59.1624 17.9061C59.841 17.1997 60.3674 16.3646 60.7097 15.4513C61.052 14.5381 61.2031 13.5657 61.1537 12.593C61.1044 11.6204 60.8556 10.6678 60.4226 9.79292C59.9896 8.91804 59.3813 8.13911 58.6346 7.50331C57.8879 6.86752 57.0183 6.38809 56.0785 6.09409C55.1386 5.80008 54.1482 5.69762 53.1671 5.7929C54.5923 7.91547 55.3524 10.4061 55.3521 12.9532C55.3524 15.5003 54.5923 17.9909 53.1671 20.1135ZM24.5734 35.2571C24.0951 35.2559 23.6212 35.3478 23.1788 35.5275C22.7364 35.7073 22.3342 35.9713 21.9952 36.3047L16.023 42.2044V53.2441H32.4159L49.3216 49.0712L59.6112 44.7312C59.9617 44.5441 60.2299 44.2358 60.3644 43.8653C60.4989 43.4949 60.4902 43.0884 60.34 42.7239C60.1899 42.3594 59.9087 42.0625 59.5506 41.8901C59.1924 41.7178 58.7825 41.6821 58.3993 41.79L58.3411 41.8044L39.6612 46.0493H29.1327V40.2935H38.2366C38.9127 40.2935 39.5611 40.0282 40.0391 39.5559C40.5172 39.0837 40.7857 38.4432 40.7857 37.7753C40.7857 37.1074 40.5172 36.4669 40.0391 35.9947C39.5611 35.5224 38.9127 35.2571 38.2366 35.2571H24.5734ZM46.5744 38.5725L56.9223 36.2212C58.0244 35.9349 59.1783 35.902 60.2953 36.1248C61.4123 36.3477 62.4628 36.8205 63.3661 37.5069C64.2693 38.1932 65.0013 39.075 65.5059 40.0844C66.0105 41.0938 66.2742 42.2039 66.2768 43.3297C66.2756 44.6962 65.8897 46.0355 65.1623 47.1979C64.4348 48.3602 63.3944 49.2998 62.1574 49.9115L62.0788 49.9518L51.1832 54.5421L33.1326 59H0V38.135H11.9036L17.8816 32.2295C18.7624 31.3624 19.8075 30.6751 20.9572 30.207C22.1069 29.7389 23.3386 29.4991 24.5821 29.5013H38.2366C39.4047 29.5011 40.5598 29.7423 41.6279 30.2094C42.696 30.6764 43.6534 31.359 44.4386 32.2132C45.2238 33.0675 45.8194 34.0746 46.1872 35.1697C46.555 36.2649 46.6869 37.424 46.5744 38.5725ZM10.1964 43.8909H5.82653V53.2441H10.1964V43.8909Z" fill="#9E2E6A"/>
</svg>
