<svg width="68" height="68" viewBox="0 0 68 68" fill="none" xmlns="http://www.w3.org/2000/svg">
<path d="M56.6667 59.5H51V52.1617L43.6617 59.5L39.6667 55.505L47.005 48.1667H39.6667V42.5H56.6667V59.5ZM15.5833 34C5.66667 34 0 35.9833 0 39.6667V62.3333C0 66.0167 8.01833 68 15.5833 68C23.1483 68 31.1667 66.0167 31.1667 62.3333V39.6667C31.1667 35.9833 25.5 34 15.5833 34ZM15.5833 36.8333C22.6242 36.8333 28.3333 38.7373 28.3333 41.0833C28.3333 43.4293 22.6242 45.3333 15.5833 45.3333C8.5425 45.3333 2.83333 43.4293 2.83333 41.0833C2.83333 38.7373 8.5425 36.8333 15.5833 36.8333ZM2.83333 57.341V54.349C6.874 56.0063 11.2179 56.796 15.5833 56.6667C19.9488 56.796 24.2927 56.0063 28.3333 54.349V57.4345C24.2637 58.9669 19.9286 59.6692 15.5833 59.5C11.2323 59.6318 6.89842 58.8979 2.83333 57.341ZM52.4167 0C42.5 0 36.8333 1.98333 36.8333 5.66667V28.3333C36.8333 32.0167 44.8517 34 52.4167 34C59.9817 34 68 32.0167 68 28.3333V5.66667C68 1.98333 62.3333 0 52.4167 0ZM52.4167 2.83333C59.4575 2.83333 65.1667 4.73733 65.1667 7.08333C65.1667 9.42933 59.4575 11.3333 52.4167 11.3333C45.3758 11.3333 39.6667 9.42933 39.6667 7.08333C39.6667 4.73733 45.3758 2.83333 52.4167 2.83333ZM39.6667 23.341V20.349C43.7073 22.0063 48.0512 22.796 52.4167 22.6667C56.7821 22.796 61.126 22.0063 65.1667 20.349V23.4345C61.0971 24.9669 56.7619 25.6692 52.4167 25.5C48.0656 25.6318 43.7318 24.8979 39.6667 23.341Z" fill="#9E2E6A"/>
</svg>
