<svg width="115" height="74" viewBox="0 0 115 74" fill="none" xmlns="http://www.w3.org/2000/svg">
<path fill-rule="evenodd" clip-rule="evenodd" d="M77.6233 19.4964C82.3565 20.0328 91.5941 19.4253 95.5833 21.2322C99.857 23.1676 101.681 28.2246 103.478 33.2023L88.1707 32.5024C82.9795 32.343 77.3224 32.1034 72.1566 32.3446L72.1002 43.6982C76.7181 43.8904 85.8977 43.596 90.3137 44.5175C92.5393 44.9819 92.76 46.2181 92.1664 48.501C90.7863 53.8123 90.5181 53.3773 84.8012 53.8908C80.4114 54.2857 76.4361 54.0682 72.1124 54.1998L72.0896 58.4965C74.9447 58.7475 86.3122 58.2307 87.1241 58.8031C87.981 59.4065 87.9507 62.3254 87.1372 62.9697C86.1454 63.8552 75.1728 63.2608 72.1926 63.4202L72.083 67.64L100.797 67.7071C101.401 74.6912 99.8333 73.6259 111.023 73.6929C116.062 73.7232 114.879 71.3807 114.879 61.3557C114.879 56.2823 115.131 50.46 114.661 45.4741C114.445 43.1823 114.091 40.9068 113.303 38.8726C111.982 35.4647 110.911 35.6765 109.853 34.1524C112.328 33.347 116.223 32.4019 114.504 28.7773C113.244 26.1208 108.861 26.7758 105.386 26.7864C103.933 22.2902 100.465 18.2724 96.0739 16.8824C92.8377 15.858 81.9232 15.0624 78.3256 15.3862L77.6233 19.4956V19.4964ZM95.8842 52.0536C98.2888 51.9808 105.691 51.4158 107.534 50.6456C108.984 50.0397 110.144 48.7602 110.337 46.9319C110.516 45.2264 110.088 42.8184 109.096 41.7269C106.927 42.0801 101.485 43.2085 99.6052 43.9378C97.8947 44.6025 97.6911 45.2746 97.1654 47.2614C96.7623 48.7855 96.1712 50.4894 95.8842 52.0527V52.0536Z" fill="#9E2E6A"/>
<path fill-rule="evenodd" clip-rule="evenodd" d="M56.9781 3.40215L62.3066 8.84674C60.9886 10.6259 57.9086 13.338 56.2471 15.0027C54.1434 17.1105 52.2285 19.0507 50.119 21.1414C48.4723 22.7726 38.8226 32.6782 37.9012 33.1802L22.1087 17.3803L0 39.4588C1.02694 41.2338 3.60247 42.8675 4.833 44.591C6.43719 43.9001 20.381 28.7086 22.0269 27.8852L37.8652 43.6328C38.7229 43.2182 40.8512 40.9092 41.6508 40.0916C42.9345 38.7793 44.0857 37.6698 45.38 36.3649C48.6988 33.0175 66.7864 14.6568 67.7651 14.1899L72.9562 19.4874L76.4736 0L56.9781 3.40134V3.40215Z" fill="#9E2E6A"/>
<path fill-rule="evenodd" clip-rule="evenodd" d="M56.1295 73.6847L67.5558 73.6872L67.5583 20.6296C66.9802 20.9452 67.5247 20.5642 66.8968 21.0793L65.4324 22.5045C64.6818 23.2362 64.1365 23.8118 63.3884 24.5518L57.4998 30.4494C56.508 31.4362 56.1221 31.294 56.1172 33.1999L56.1278 73.6856L56.1295 73.6847Z" fill="#9E2E6A"/>
<path fill-rule="evenodd" clip-rule="evenodd" d="M40.1844 49.3299L40.1836 73.7026L51.6165 73.6846L51.614 36.5471C50.5225 37.1088 46.6821 41.2869 45.4786 42.4757L41.0127 46.9048C40.1141 47.7617 40.1852 47.7078 40.1852 49.3299H40.1844Z" fill="#9E2E6A"/>
<path fill-rule="evenodd" clip-rule="evenodd" d="M24.2554 73.6086L35.676 73.6806C35.6433 65.5321 35.5894 57.3885 35.6801 49.3169C35.7038 47.1894 35.7717 47.7904 33.5085 45.5443C31.7988 43.8478 25.3363 37.0794 24.248 36.5913L24.2554 73.6086Z" fill="#9E2E6A"/>
<path fill-rule="evenodd" clip-rule="evenodd" d="M8.30169 73.6715L19.7575 73.6936C19.5187 61.8838 19.7967 48.7118 19.7223 36.6199C18.2629 37.6648 11.5567 44.7013 9.1512 47.0397C8.37691 47.7928 8.28452 47.8083 8.28615 49.3144C8.29515 57.4326 8.30823 65.5525 8.30087 73.6715H8.30169Z" fill="#9E2E6A"/>
</svg>
