<svg width="105" height="86" viewBox="0 0 105 86" fill="none" xmlns="http://www.w3.org/2000/svg">
<path d="M12.9061 39.7543L17.4566 21.9422C17.8023 20.5435 18.6028 19.2993 19.7324 18.4051C20.862 17.5108 22.2567 17.0171 23.6974 17.0016H94.8159C95.802 17.0023 96.775 17.2274 97.6612 17.6597C98.5474 18.0921 99.3237 18.7203 99.9312 19.497C100.539 20.2736 100.962 21.1783 101.168 22.1425C101.374 23.1068 101.358 24.1053 101.122 25.0625L99.0415 33.2535M39.7543 75.5086H13.7512C11.165 75.5086 8.68475 74.4813 6.85605 72.6526C5.02735 70.8239 4 68.3436 4 65.7574V10.5008C4 8.77667 4.6849 7.12317 5.90404 5.90403C7.12317 4.6849 8.77667 4 10.5008 4H43.0047C44.7288 4 46.3823 4.6849 47.6014 5.90403C48.8206 7.12317 49.5055 8.77667 49.5055 10.5008V17.0016" stroke="#9E2E6A" stroke-width="6.50078" stroke-linecap="round" stroke-linejoin="round"/>
<path d="M84.7586 65.1333H49.5049L67.122 33.2534L84.7586 65.1333Z" stroke="#9E2E6A" stroke-width="6.50078" stroke-linejoin="round"/>
<path d="M76.5587 50.4222C79.7548 48.6026 83.4549 47.897 87.0875 48.4145C90.7201 48.932 94.083 50.6438 96.6567 53.2853C99.2305 55.9269 100.872 59.3514 101.327 63.0297C101.783 66.708 101.027 70.4356 99.1771 73.6367C97.3269 76.8377 94.4852 79.3341 91.0909 80.7402C87.6965 82.1463 83.9385 82.3839 80.3972 81.4164C76.8558 80.4488 73.7283 78.3298 71.4977 75.3868C69.2671 72.4438 68.0574 68.8405 68.0557 65.1335" stroke="#9E2E6A" stroke-width="6.50078" stroke-linejoin="round"/>
</svg>
