<svg width="76" height="76" viewBox="0 0 76 76" fill="none" xmlns="http://www.w3.org/2000/svg">
<path d="M16.2857 5.42857V16.2857H5.42857V5.42857H16.2857ZM0 0V21.7143H21.7143V0H0ZM43.4286 13.5714V24.4286H32.5714V13.5714H43.4286ZM27.1429 8.14286V29.8571H48.8571V8.14286H27.1429ZM16.2857 38V48.8571H5.42857V38H16.2857ZM0 32.5714V54.2857H21.7143V32.5714H0Z" fill="#9E2E6A"/>
<path d="M54.2863 21.7144V38.0001H38.0006V54.2858H21.7148V76.0001H76.0006V21.7144H54.2863ZM43.4291 43.4286H54.2863V54.2858H43.4291V43.4286ZM38.0006 70.5715H27.1434V59.7144H38.0006V70.5715ZM54.2863 70.5715H43.4291V59.7144H54.2863V70.5715ZM70.572 70.5715H59.7148V59.7144H70.572V70.5715ZM70.572 54.2858H59.7148V43.4286H70.572V54.2858ZM59.7148 38.0001V27.1429H70.572V38.0001H59.7148Z" fill="#9E2E6A"/>
</svg>
