<svg width="84" height="71" viewBox="0 0 84 71" fill="none" xmlns="http://www.w3.org/2000/svg">
<path fill-rule="evenodd" clip-rule="evenodd" d="M0.00139344 58.8508V59.3566C0.70369 59.8833 2.69074 64.6684 8.26034 66.9244C15.4854 69.8506 20.779 63.314 27.7031 65.1269C29.7737 65.6689 31.8792 66.1441 33.8008 66.7614C37.6509 67.9974 41.7546 69.4256 45.6618 70.4916C50.419 71.7903 54.4544 69.3685 57.8154 67.5682C66.5816 62.8709 69.5231 62.2619 76.698 55.2975C78.4802 53.5682 83.4785 48.9183 83.0953 46.0952C81.5472 44.979 78.0775 44.274 76.7147 44.529C73.7007 45.0933 65.818 52.2152 61.8146 53.6881C62.1532 55.0146 63.1217 55.4229 62.8722 57.0672C62.698 58.2098 61.8564 58.972 60.9089 59.2228C58.3686 59.8959 47.7533 59.1016 44.2516 59.1392C41.9998 59.1629 38.2905 59.999 36.6337 59.3315C36.4637 54.5102 57.3375 58.4913 60.1536 57.2609C60.8503 53.6895 56.8163 53.5014 54.173 52.6012C51.2857 51.6174 48.8166 50.8719 46.0129 49.9272C41.5205 48.4167 33.6127 45.2926 29.3014 45.0975C20.871 44.7157 19.1181 48.5686 14.5169 51.9128C12.3055 53.5195 2.78271 57.8949 0 58.8494L0.00139344 58.8508Z" fill="#9E2E6A"/>
<path fill-rule="evenodd" clip-rule="evenodd" d="M36.1088 0H30.1713L29.4453 0.310738L32.5973 8.1196C33.5797 10.6752 34.282 13.3882 35.4441 15.8727C36.5045 18.1413 38.3076 20.7846 40.4075 21.6722C42.9339 22.741 47.2494 21.551 48.3989 19.7354C47.4528 15.7724 41.762 9.141 41.4066 8.38296C43.6083 9.48518 46.1276 12.4518 47.4361 14.6785C48.9675 17.2829 50.0042 20.1534 50.8458 23.5618C53.2649 33.366 52.3326 37.4433 52.773 46.4254L55.0317 46.9201C55.3899 44.5164 55.479 41.7629 55.7535 39.4205C56.3263 34.5254 57.1651 30.2475 58.6185 25.5976C59.0184 24.3184 60.1067 20.7317 61.1517 19.8552C60.7839 22.3202 59.2163 25.4415 59.0588 28.0027C61.5698 29.4491 64.4459 28.8346 66.6405 27.3673C71.0229 24.4368 72.0178 18.4478 72.9096 13.9498C73.3792 11.5851 75.0137 6.62722 75.0597 6.19107C66.706 6.72755 58.4234 9.08387 55.6044 15.4909C53.1185 21.1427 57.1317 25.1573 56.9798 27.005L54.6472 38.9008C54.4897 38.7057 54.5287 38.8158 54.3908 38.4855L54.2026 37.4001C54.1539 36.7772 54.1037 36.2142 54.0382 35.6833C53.354 30.1527 52.4678 25.6338 50.726 20.2983C49.7812 17.4041 50.6173 17.0599 51.2165 14.2633C52.295 9.23436 49.7659 6.06288 47.1574 3.95181C42.7165 0.358115 37.0661 0.530902 36.1074 0.00139344L36.1088 0Z" fill="#9E2E6A"/>
</svg>
