<svg width="64" height="64" viewBox="0 0 64 64" fill="none" xmlns="http://www.w3.org/2000/svg">
<path d="M24 2C24 1.46957 23.7893 0.96086 23.4142 0.585787C23.0391 0.210714 22.5304 0 22 0C21.4696 0 20.9609 0.210714 20.5858 0.585787C20.2107 0.96086 20 1.46957 20 2V8H18C15.3478 8 12.8043 9.05357 10.9289 10.9289C9.05357 12.8043 8 15.3478 8 18V20H2C1.46957 20 0.96086 20.2107 0.585787 20.5858C0.210714 20.9609 0 21.4696 0 22C0 22.5304 0.210714 23.0391 0.585787 23.4142C0.96086 23.7893 1.46957 24 2 24H8V30H2C1.46957 30 0.96086 30.2107 0.585787 30.5858C0.210714 30.9609 0 31.4696 0 32C0 32.5304 0.210714 33.0391 0.585787 33.4142C0.96086 33.7893 1.46957 34 2 34H8V40H2C1.46957 40 0.96086 40.2107 0.585787 40.5858C0.210714 40.9609 0 41.4696 0 42C0 42.5304 0.210714 43.0391 0.585787 43.4142C0.96086 43.7893 1.46957 44 2 44H8V46C8 48.6522 9.05357 51.1957 10.9289 53.0711C12.8043 54.9464 15.3478 56 18 56H20V62C20 62.5304 20.2107 63.0391 20.5858 63.4142C20.9609 63.7893 21.4696 64 22 64C22.5304 64 23.0391 63.7893 23.4142 63.4142C23.7893 63.0391 24 62.5304 24 62V56H30V62C30 62.5304 30.2107 63.0391 30.5858 63.4142C30.9609 63.7893 31.4696 64 32 64C32.5304 64 33.0391 63.7893 33.4142 63.4142C33.7893 63.0391 34 62.5304 34 62V56H40V62C40 62.5304 40.2107 63.0391 40.5858 63.4142C40.9609 63.7893 41.4696 64 42 64C42.5304 64 43.0391 63.7893 43.4142 63.4142C43.7893 63.0391 44 62.5304 44 62V56H46C48.6522 56 51.1957 54.9464 53.0711 53.0711C54.9464 51.1957 56 48.6522 56 46V44H62C62.5304 44 63.0391 43.7893 63.4142 43.4142C63.7893 43.0391 64 42.5304 64 42C64 41.4696 63.7893 40.9609 63.4142 40.5858C63.0391 40.2107 62.5304 40 62 40H56V34H62C62.5304 34 63.0391 33.7893 63.4142 33.4142C63.7893 33.0391 64 32.5304 64 32C64 31.4696 63.7893 30.9609 63.4142 30.5858C63.0391 30.2107 62.5304 30 62 30H56V24H62C62.5304 24 63.0391 23.7893 63.4142 23.4142C63.7893 23.0391 64 22.5304 64 22C64 21.4696 63.7893 20.9609 63.4142 20.5858C63.0391 20.2107 62.5304 20 62 20H56V18C56 15.3478 54.9464 12.8043 53.0711 10.9289C51.1957 9.05357 48.6522 8 46 8H44V2C44 1.46957 43.7893 0.96086 43.4142 0.585787C43.0391 0.210714 42.5304 0 42 0C41.4696 0 40.9609 0.210714 40.5858 0.585787C40.2107 0.96086 40 1.46957 40 2V8H34V2C34 1.46957 33.7893 0.96086 33.4142 0.585787C33.0391 0.210714 32.5304 0 32 0C31.4696 0 30.9609 0.210714 30.5858 0.585787C30.2107 0.96086 30 1.46957 30 2V8H24V2ZM35.944 22.16L34.28 28H40.396C40.7 28.0003 40.9975 28.0871 41.2539 28.2504C41.5103 28.4136 41.7149 28.6465 41.8438 28.9218C41.9726 29.1971 42.0203 29.5034 41.9814 29.8049C41.9425 30.1063 41.8185 30.3904 41.624 30.624L30.992 43.384C29.82 44.784 27.568 43.584 28.088 41.832L29.82 36H23.6C23.2953 36.0004 22.9969 35.9137 22.7397 35.7503C22.4826 35.5868 22.2775 35.3534 22.1485 35.0773C22.0195 34.8013 21.972 34.4942 22.0116 34.1921C22.0512 33.89 22.1762 33.6055 22.372 33.372L33.044 20.62C34.204 19.228 36.444 20.416 35.948 22.16" fill="#9E2E6A"/>
</svg>
