<svg width="77" height="65" viewBox="0 0 77 65" fill="none" xmlns="http://www.w3.org/2000/svg">
<path fill-rule="evenodd" clip-rule="evenodd" d="M22.5712 33.9069C23.5535 34.515 26.1931 36.2192 27.5875 36.1607L27.9208 30.931C28.9761 34.4097 27.6138 36.2894 29.7098 36.6402C30.0431 36.6957 30.5049 36.7279 30.9083 36.7629C35.6469 37.1897 40.4615 37.4148 45.244 36.7951C48.8337 36.3303 47.2815 36.7892 48.3397 32.2904C48.3835 32.3401 48.4332 32.3517 48.4479 32.4541C48.5092 32.8429 48.746 32.0887 48.6993 34.3132C48.6846 34.9827 48.6817 35.6579 48.7256 36.3244C49.9942 36.3595 52.821 34.7722 53.7799 34.1729C54.0079 25.5786 54.3353 20.0975 45.2235 18.1126C44.1244 17.8729 42.8849 17.5455 41.8208 17.9518C40.5814 18.4283 39.8213 18.6739 38.3422 18.6739C34.3578 18.6709 36.3602 17.183 31.4959 18.136C23.2494 19.7496 21.8375 25.2716 22.5771 33.9069H22.5712Z" fill="#9E2E6A"/>
<path fill-rule="evenodd" clip-rule="evenodd" d="M58.1079 48.0349C58.9878 46.8306 63.5978 44.7843 64.8431 42.7263C66.0562 40.7239 64.4631 38.3648 61.3118 40.5193C57.4677 43.1502 51.7528 45.594 49.0195 48.4296C47.0756 50.4466 44.9913 55.916 43.363 59.1608C42.8076 60.2658 40.7906 63.6889 40.5859 64.6478L56.6317 64.6712C57.2105 63.3791 57.2368 60.9703 58.0377 59.3421C59.6192 56.1294 66.2053 52.6332 68.997 50.3004C72.3588 47.4883 72.3968 46.6288 73.6128 41.5307C74.7617 36.7132 75.6679 29.253 76.2759 24.0029C76.6852 20.4774 73.4842 21.5327 72.9814 22.8131C71.0462 27.7271 68.0966 40.0778 66.0358 42.7614C64.8021 44.3633 60.2916 47.956 58.8504 48.1606L58.1079 48.0349Z" fill="#9E2E6A"/>
<path fill-rule="evenodd" clip-rule="evenodd" d="M19.7386 64.5338C21.0658 65.019 33.2791 64.7384 35.7083 64.6566C35.5505 63.917 33.3756 60.4763 32.8465 59.4269C31.9169 57.5852 31.1188 55.7114 30.3296 53.7499C26.9298 45.2783 22.4222 45.6087 15.0994 40.5924C11.8722 38.3795 10.4047 40.6099 11.384 42.5714C12.3194 44.4452 16.9645 46.892 17.704 47.5029C18.4465 48.1197 17.973 47.4649 18.2098 48.2717C15.6256 47.9823 11.3547 44.1967 10.2702 42.7439C8.50749 40.3848 7.62467 36.0847 6.65415 33.0474C5.55209 29.6039 4.49387 26.2041 3.38888 22.9827C2.81885 21.3164 -0.265183 20.6821 0.0183719 23.8275C0.380855 27.8353 1.92141 37.9556 2.66099 41.4459C3.65782 46.1436 4.14016 47.6725 7.20665 50.1952C10.3082 52.7472 16.4763 56.0067 18.2068 59.1959C19.0604 60.7657 19.113 63.4171 19.7386 64.5338Z" fill="#9E2E6A"/>
<path fill-rule="evenodd" clip-rule="evenodd" d="M39.4148 0.00292325H36.7283L35.9887 0.365406C34.3576 0.988059 33.2263 1.28915 31.8173 3.01095C30.6655 4.41703 29.7154 6.41654 29.8762 8.96853C30.5076 19.0099 45.6472 19.2233 46.4043 8.96269C46.6528 5.58926 44.9222 2.74786 42.2854 1.18684C40.9232 0.380023 40.1017 0.473567 39.4177 0L39.4148 0.00292325Z" fill="#9E2E6A"/>
<path fill-rule="evenodd" clip-rule="evenodd" d="M10.9024 30.8812C11.3701 31.9043 13.5538 32.5854 14.5331 32.641L14.5711 28.2795C15.0534 29.1623 15.6381 32.1118 15.9392 33.2782C21.8091 35.4648 20.3621 33.3045 20.3796 28.9752C20.3854 27.1511 20.5053 25.9496 20.9409 24.3857C21.7301 21.5531 23.259 20.0096 25.317 18.5421C24.1857 18.548 23.4695 18.8491 22.1335 18.6883C21.0227 18.5538 20.4702 18.0159 19.2804 18.0686C17.4534 18.1475 15.0125 19.0478 13.9017 19.7991C10.4113 22.1611 10.8907 25.8532 10.9024 30.8841V30.8812Z" fill="#9E2E6A"/>
<path fill-rule="evenodd" clip-rule="evenodd" d="M51.7217 18.7088C53.7124 20.6148 54.6011 21.1497 55.5336 24.5319C56.2673 27.1892 55.9224 31.0128 56.0042 34.0062C57.6793 34.012 59.1117 33.6612 60.5733 33.2958C60.8773 31.9102 61.1842 29.519 61.7455 28.5952L61.804 32.7112C62.5202 32.6469 63.4381 32.2084 63.9935 31.9482C65.762 31.1209 65.4171 31.4074 65.4171 27.4493C65.4113 23.4036 64.7155 20.9188 61.6841 19.3578C60.6434 18.8228 58.3604 18.13 57.0098 18.0745C55.9282 18.0306 55.6651 18.4516 54.7092 18.6299C53.6218 18.8316 52.7711 18.6737 51.7188 18.7088H51.7217Z" fill="#9E2E6A"/>
<path fill-rule="evenodd" clip-rule="evenodd" d="M51.8235 4.11003C50.8793 4.31174 50.4174 4.46375 49.6019 4.96947C46.7166 6.76727 49.9293 7.5887 47.6784 12.3945C47.1609 13.4966 47.0323 13.4878 47.9385 14.6045C48.5612 15.3704 48.947 15.689 49.6457 16.1304C50.9933 16.984 53.0308 17.4459 54.8959 16.9051C63.0459 14.549 59.9677 2.36777 51.8235 4.11003Z" fill="#9E2E6A"/>
<path fill-rule="evenodd" clip-rule="evenodd" d="M27.886 5.86414C26.5793 4.97839 25.7169 4.06049 23.4777 3.97279C17.637 3.73893 14.4215 10.3981 18.1457 14.859C20.7211 17.9459 26.2665 17.9284 28.6898 14.1632C29.3213 13.184 28.8068 13.0027 28.3683 11.851C27.4124 9.32526 27.9649 8.50968 27.886 5.86414Z" fill="#9E2E6A"/>
</svg>
