<svg width="70" height="73" viewBox="0 0 70 73" fill="none" xmlns="http://www.w3.org/2000/svg">
<path d="M44.9385 0H3.45681C2.54001 0 1.66075 0.361923 1.01248 1.00615C0.364199 1.65038 0 2.52413 0 3.43521V65.269C0 66.18 0.364199 67.0538 1.01248 67.698C1.66075 68.3423 2.54001 68.7042 3.45681 68.7042H31.9928C28.9415 64.3534 27.423 59.1223 27.6738 53.825C27.9245 48.5276 29.9304 43.4613 33.3793 39.4144C36.8281 35.3674 41.5264 32.567 46.743 31.4489C51.9596 30.3308 57.4018 30.9578 62.2226 33.2322V17.176L44.9385 0ZM37.2852 45.781C37.42 43.2836 39.3593 41.25 41.862 40.9855L44.8694 40.6694C45.2277 40.6308 45.5649 40.4819 45.8339 40.2435L48.0842 38.2339C48.9899 37.4228 50.1573 36.9599 51.3761 36.9284C52.5948 36.8969 53.7848 37.299 54.7317 38.0621L57.0892 39.9515C57.3658 40.1748 57.7115 40.3053 58.071 40.3259L61.0922 40.4874C63.6053 40.6213 65.6518 42.5485 65.9179 45.0356L66.236 48.0242C66.2748 48.3803 66.4247 48.7154 66.6646 48.9826L68.6868 51.219C70.3703 53.0808 70.4429 55.8805 68.8597 57.8249L66.9584 60.1677C66.7339 60.4461 66.6022 60.7871 66.5816 61.1433L66.4192 64.1457C66.3566 65.3559 65.8611 66.5041 65.0219 67.3833C64.1828 68.2626 63.0552 68.8151 61.8424 68.9412L58.8349 69.2572C58.4766 69.2958 58.1394 69.4448 57.8705 69.6832L55.6201 71.6928C54.7144 72.5038 53.547 72.9668 52.3283 72.9983C51.1095 73.0298 49.9195 72.6277 48.9726 71.8646L46.6151 69.9752C46.3349 69.7521 45.9918 69.6212 45.6334 69.6008L42.6121 69.4393C41.3943 69.3771 40.2389 68.8847 39.3541 68.0508C38.4693 67.2169 37.9133 66.0963 37.7864 64.8911L37.4684 61.9025C37.4295 61.5464 37.2797 61.2113 37.0397 60.944L35.0175 58.7077C34.2014 57.8077 33.7355 56.6476 33.7038 55.4365C33.6721 54.2253 34.0767 53.0428 34.8447 52.1018L36.7459 49.759C36.9704 49.4806 37.1021 49.1396 37.1227 48.7834L37.2852 45.781ZM62.3263 51.6312L58.6621 47.9899L50.1238 56.4748L45.0423 51.4251L41.378 55.0664L48.2916 61.9368L50.1238 63.7575L51.9559 61.9368L62.3263 51.6312Z" fill="#9E2E6A"/>
</svg>
