<svg width="71" height="71" viewBox="0 0 71 71" fill="none" xmlns="http://www.w3.org/2000/svg">
<path d="M49.7 34.8894C49.7034 32.1748 48.8228 29.5329 47.1913 27.3634L53.4867 21.1154C54.717 21.6296 56.0346 21.9028 57.368 21.92C58.574 21.9579 59.7757 21.7577 60.9043 21.3309C62.0329 20.9041 63.0664 20.2591 63.9456 19.4326C64.8247 18.6062 65.5324 17.6146 66.0281 16.5145C66.5239 15.4144 66.7979 14.2274 66.8347 13.0214C66.8347 10.5106 65.8373 8.10275 64.0619 6.32741C62.2866 4.55207 59.8787 3.55469 57.368 3.55469C54.8573 3.55469 52.4494 4.55207 50.6741 6.32741C48.8987 8.10275 47.9013 10.5106 47.9013 13.0214C47.9074 14.4855 48.2992 15.9222 49.0373 17.1867L42.742 23.482C40.5291 22.2434 38.036 21.5916 35.5 21.5887C32.3688 21.5455 29.3112 22.5386 26.803 24.4134C24.2947 26.2881 22.4765 28.9394 21.6313 31.9547H18.3653C17.6505 30.187 16.4185 28.6764 14.8307 27.6207C13.2429 26.565 11.3733 26.0133 9.46667 26.038C7.03889 25.9614 4.67963 26.8497 2.90538 28.5087C1.13113 30.1676 0.0864339 32.4619 0 34.8894C0.0367236 36.0954 0.310785 37.2824 0.806517 38.3825C1.30225 39.4826 2.00993 40.4742 2.88911 41.3006C3.76829 42.1271 4.80173 42.7721 5.93035 43.1989C7.05897 43.6257 8.26064 43.8259 9.46667 43.788C11.3733 43.8127 13.2429 43.2611 14.8307 42.2053C16.4185 41.1496 17.6505 39.639 18.3653 37.8714H21.6313C22.4765 40.8866 24.2947 43.5379 26.803 45.4127C29.3112 47.2874 32.3688 48.2805 35.5 48.2374C37.309 48.2942 39.1115 47.9939 40.8045 47.3537C42.4974 46.7135 44.0476 45.7459 45.3663 44.5063C46.6851 43.2666 47.7466 41.7792 48.4902 40.1291C49.2338 38.479 49.6449 36.6984 49.7 34.8894ZM57.368 10.0867C58.2274 10.0075 59.0832 10.2718 59.7484 10.8217C60.4136 11.3716 60.8341 12.1624 60.918 13.0214C60.78 13.8634 60.3473 14.6289 59.697 15.1814C59.0467 15.7338 58.2212 16.037 57.368 16.037C56.5148 16.037 55.6893 15.7338 55.039 15.1814C54.3887 14.6289 53.956 13.8634 53.818 13.0214C53.9136 12.1673 54.3373 11.3838 54.9997 10.8363C55.662 10.2887 56.5112 10.02 57.368 10.0867ZM9.46667 37.8714C8.60249 37.9374 7.74686 37.6621 7.08323 37.1047C6.41961 36.5472 6.00082 35.7519 5.91667 34.8894C6.01229 34.0353 6.43599 33.2518 7.09835 32.7043C7.7607 32.1567 8.60989 31.888 9.46667 31.9547C10.3234 31.888 11.1726 32.1567 11.835 32.7043C12.4973 33.2518 12.921 34.0353 13.0167 34.8894C12.9325 35.7519 12.5137 36.5472 11.8501 37.1047C11.1865 37.6621 10.3308 37.9374 9.46667 37.8714ZM35.5 42.3207C33.4185 42.4241 31.3804 41.7013 29.8291 40.3096C28.2778 38.9179 27.3389 36.9698 27.2167 34.8894C27.3387 32.8128 28.2792 30.8693 29.832 29.4851C31.3848 28.101 33.4231 27.389 35.5 27.5054C37.5738 27.4015 39.6052 28.1179 41.1551 29.4996C42.7051 30.8812 43.6492 32.8173 43.7833 34.8894C43.6491 36.9654 42.7067 38.9061 41.1582 40.2954C39.6096 41.6846 37.5784 42.4117 35.5 42.3207Z" fill="#9E2E6A"/>
<path d="M9.46667 17.7546C10.8027 17.7633 12.1255 17.489 13.348 16.9499L21.6787 25.4226C22.8828 23.8099 24.3559 22.4168 26.0333 21.3046L17.7973 13.0212C18.5355 11.7568 18.9273 10.3201 18.9333 8.85591C18.8469 6.42846 17.8022 4.13414 16.028 2.47521C14.2537 0.81629 11.8944 -0.072082 9.46667 0.00457974C7.03889 -0.072082 4.67963 0.81629 2.90538 2.47521C1.13113 4.13414 0.0864339 6.42846 0 8.85591C0.0367236 10.062 0.310785 11.249 0.806517 12.3491C1.30225 13.4492 2.00993 14.4408 2.88911 15.2672C3.76829 16.0936 4.80173 16.7387 5.93035 17.1655C7.05897 17.5923 8.26064 17.7925 9.46667 17.7546ZM9.46667 5.92125C10.3234 5.85453 11.1726 6.1233 11.835 6.67085C12.4973 7.2184 12.921 8.00187 13.0167 8.85591C12.9325 9.71851 12.5137 10.5138 11.8501 11.0712C11.1865 11.6287 10.3308 11.9039 9.46667 11.8379C8.60249 11.9039 7.74686 11.6287 7.08323 11.0712C6.41961 10.5138 6.00082 9.71851 5.91667 8.85591C6.01229 8.00187 6.43599 7.2184 7.09835 6.67085C7.7607 6.1233 8.60989 5.85453 9.46667 5.92125ZM61.5333 52.0712C60.1973 52.0626 58.8745 52.3368 57.652 52.8759L49.3213 44.3559C48.0908 45.9219 46.6021 47.2665 44.9193 48.3319L53.1553 56.5679C52.4317 57.8361 52.0561 59.2731 52.0667 60.7332C52.0667 63.244 53.064 65.6518 54.8394 67.4272C56.6147 69.2025 59.0226 70.1999 61.5333 70.1999C64.044 70.1999 66.4519 69.2025 68.2273 67.4272C70.0026 65.6518 71 63.244 71 60.7332C70.8653 58.3393 69.7996 56.093 68.0306 54.4744C66.2617 52.8558 63.9298 51.9933 61.5333 52.0712ZM61.5333 63.9046C60.6692 63.9706 59.8135 63.6954 59.1499 63.1379C58.4863 62.5805 58.0675 61.7852 57.9833 60.9226C58.1213 60.0806 58.5541 59.315 59.2043 58.7626C59.8546 58.2102 60.6801 57.9069 61.5333 57.9069C62.3866 57.9069 63.212 58.2102 63.8623 58.7626C64.5126 59.315 64.9454 60.0806 65.0833 60.9226C64.9992 61.7852 64.5804 62.5805 63.9168 63.1379C63.2531 63.6954 62.3975 63.9706 61.5333 63.9046Z" fill="#9E2E6A"/>
</svg>
