<svg width="202" height="281" viewBox="0 0 202 281" fill="none" xmlns="http://www.w3.org/2000/svg">
<g style="mix-blend-mode:screen">
<g opacity="0.3">
<path d="M27.1906 57V1C12.565 1.96266 1 14.1307 1 28.9999C1 43.8691 12.565 56.037 27.1906 57Z" stroke="#262626" stroke-width="1.4"/>
<path d="M27.1906 85V29C12.565 29.9627 1 42.1307 1 56.9999C1 71.8691 12.565 84.037 27.1906 85Z" stroke="#262626" stroke-width="1.4"/>
<path d="M27.1906 113V57C12.565 57.9627 1 70.1307 1 84.9999C1 99.8691 12.565 112.037 27.1906 113Z" stroke="#262626" stroke-width="1.4"/>
<path d="M27.1906 141V85C12.565 85.9627 1 98.1307 1 113C1 127.869 12.565 140.037 27.1906 141Z" stroke="#262626" stroke-width="1.4"/>
<path d="M27.1906 169V113C12.565 113.963 1 126.131 1 141C1 155.869 12.565 168.037 27.1906 169Z" stroke="#262626" stroke-width="1.4"/>
<path d="M27.1906 197V141C12.565 141.963 1 154.131 1 169C1 183.869 12.565 196.037 27.1906 197Z" stroke="#262626" stroke-width="1.4"/>
<path d="M27.1906 225V169C12.565 169.963 1 182.131 1 197C1 211.869 12.565 224.037 27.1906 225Z" stroke="#262626" stroke-width="1.4"/>
<path d="M27.1906 253V197C12.565 197.963 1 210.131 1 225C1 239.869 12.565 252.037 27.1906 253Z" stroke="#262626" stroke-width="1.4"/>
<path d="M27.1906 281V225C12.565 225.963 1 238.131 1 253C1 267.869 12.565 280.037 27.1906 281Z" stroke="#262626" stroke-width="1.4"/>
</g>
<g opacity="0.4">
<path d="M34.1905 0.999998L34.1905 57C48.8161 56.0373 60.3811 43.8693 60.3811 29.0001C60.3811 14.1309 48.8161 1.96297 34.1905 0.999998Z" stroke="#262626" stroke-width="1.4"/>
<path d="M34.1905 29L34.1905 85C48.8161 84.0373 60.3811 71.8693 60.3811 57.0001C60.3811 42.1309 48.8161 29.963 34.1905 29Z" stroke="#262626" stroke-width="1.4"/>
<path d="M34.1905 57L34.1905 113C48.8161 112.037 60.3811 99.8693 60.3811 85.0001C60.3811 70.1309 48.8161 57.963 34.1905 57Z" stroke="#262626" stroke-width="1.4"/>
<path d="M34.1905 85L34.1905 141C48.8161 140.037 60.3811 127.869 60.3811 113C60.3811 98.1309 48.8161 85.963 34.1905 85Z" stroke="#262626" stroke-width="1.4"/>
<path d="M34.1905 113L34.1905 169C48.8161 168.037 60.3811 155.869 60.3811 141C60.3811 126.131 48.8161 113.963 34.1905 113Z" stroke="#262626" stroke-width="1.4"/>
<path d="M34.1905 141L34.1905 197C48.8161 196.037 60.3811 183.869 60.3811 169C60.3811 154.131 48.8161 141.963 34.1905 141Z" stroke="#262626" stroke-width="1.4"/>
<path d="M34.1905 169L34.1905 225C48.8161 224.037 60.3811 211.869 60.3811 197C60.3811 182.131 48.8161 169.963 34.1905 169Z" stroke="#262626" stroke-width="1.4"/>
<path d="M34.1905 197L34.1905 253C48.8161 252.037 60.3811 239.869 60.3811 225C60.3811 210.131 48.8161 197.963 34.1905 197Z" stroke="#262626" stroke-width="1.4"/>
<path d="M34.1905 225L34.1905 281C48.8161 280.037 60.3811 267.869 60.3811 253C60.3811 238.131 48.8161 225.963 34.1905 225Z" stroke="#262626" stroke-width="1.4"/>
</g>
<g opacity="0.5">
<path d="M93.5717 57V1C78.9461 1.96266 67.3811 14.1307 67.3811 28.9999C67.3811 43.8691 78.9461 56.037 93.5717 57Z" stroke="#262626" stroke-width="1.4"/>
<path d="M93.5717 85V29C78.9461 29.9627 67.3811 42.1307 67.3811 56.9999C67.3811 71.8691 78.9461 84.037 93.5717 85Z" stroke="#262626" stroke-width="1.4"/>
<path d="M93.5717 113V57C78.9461 57.9627 67.3811 70.1307 67.3811 84.9999C67.3811 99.8691 78.9461 112.037 93.5717 113Z" stroke="#262626" stroke-width="1.4"/>
<path d="M93.5717 141V85C78.9461 85.9627 67.3811 98.1307 67.3811 113C67.3811 127.869 78.9461 140.037 93.5717 141Z" stroke="#262626" stroke-width="1.4"/>
<path d="M93.5717 169V113C78.9461 113.963 67.3811 126.131 67.3811 141C67.3811 155.869 78.9461 168.037 93.5717 169Z" stroke="#262626" stroke-width="1.4"/>
<path d="M93.5717 197V141C78.9461 141.963 67.3811 154.131 67.3811 169C67.3811 183.869 78.9461 196.037 93.5717 197Z" stroke="#262626" stroke-width="1.4"/>
<path d="M93.5717 225V169C78.9461 169.963 67.3811 182.131 67.3811 197C67.3811 211.869 78.9461 224.037 93.5717 225Z" stroke="#262626" stroke-width="1.4"/>
<path d="M93.5717 253V197C78.9461 197.963 67.3811 210.131 67.3811 225C67.3811 239.869 78.9461 252.037 93.5717 253Z" stroke="#262626" stroke-width="1.4"/>
<path d="M93.5717 281V225C78.9461 225.963 67.3811 238.131 67.3811 253C67.3811 267.869 78.9461 280.037 93.5717 281Z" stroke="#262626" stroke-width="1.4"/>
</g>
<g opacity="0.6">
<path d="M100.572 0.999998V57C115.197 56.0373 126.762 43.8693 126.762 29.0001C126.762 14.1309 115.197 1.96297 100.572 0.999998Z" stroke="#262626" stroke-width="1.4"/>
<path d="M100.572 29V85C115.197 84.0373 126.762 71.8693 126.762 57.0001C126.762 42.1309 115.197 29.963 100.572 29Z" stroke="#262626" stroke-width="1.4"/>
<path d="M100.572 57V113C115.197 112.037 126.762 99.8693 126.762 85.0001C126.762 70.1309 115.197 57.963 100.572 57Z" stroke="#262626" stroke-width="1.4"/>
<path d="M100.572 85V141C115.197 140.037 126.762 127.869 126.762 113C126.762 98.1309 115.197 85.963 100.572 85Z" stroke="#262626" stroke-width="1.4"/>
<path d="M100.572 113V169C115.197 168.037 126.762 155.869 126.762 141C126.762 126.131 115.197 113.963 100.572 113Z" stroke="#262626" stroke-width="1.4"/>
<path d="M100.572 141V197C115.197 196.037 126.762 183.869 126.762 169C126.762 154.131 115.197 141.963 100.572 141Z" stroke="#262626" stroke-width="1.4"/>
<path d="M100.572 169V225C115.197 224.037 126.762 211.869 126.762 197C126.762 182.131 115.197 169.963 100.572 169Z" stroke="#262626" stroke-width="1.4"/>
<path d="M100.572 197V253C115.197 252.037 126.762 239.869 126.762 225C126.762 210.131 115.197 197.963 100.572 197Z" stroke="#262626" stroke-width="1.4"/>
<path d="M100.572 225V281C115.197 280.037 126.762 267.869 126.762 253C126.762 238.131 115.197 225.963 100.572 225Z" stroke="#262626" stroke-width="1.4"/>
</g>
<g opacity="0.7">
<path d="M159.953 57V1C145.327 1.96266 133.762 14.1307 133.762 28.9999C133.762 43.8691 145.327 56.037 159.953 57Z" stroke="#262626" stroke-width="1.4"/>
<path d="M159.953 85V29C145.327 29.9627 133.762 42.1307 133.762 56.9999C133.762 71.8691 145.327 84.037 159.953 85Z" stroke="#262626" stroke-width="1.4"/>
<path d="M159.953 113V57C145.327 57.9627 133.762 70.1307 133.762 84.9999C133.762 99.8691 145.327 112.037 159.953 113Z" stroke="#262626" stroke-width="1.4"/>
<path d="M159.953 141V85C145.327 85.9627 133.762 98.1307 133.762 113C133.762 127.869 145.327 140.037 159.953 141Z" stroke="#262626" stroke-width="1.4"/>
<path d="M159.953 169V113C145.327 113.963 133.762 126.131 133.762 141C133.762 155.869 145.327 168.037 159.953 169Z" stroke="#262626" stroke-width="1.4"/>
<path d="M159.953 197V141C145.327 141.963 133.762 154.131 133.762 169C133.762 183.869 145.327 196.037 159.953 197Z" stroke="#262626" stroke-width="1.4"/>
<path d="M159.953 225V169C145.327 169.963 133.762 182.131 133.762 197C133.762 211.869 145.327 224.037 159.953 225Z" stroke="#262626" stroke-width="1.4"/>
<path d="M159.953 253V197C145.327 197.963 133.762 210.131 133.762 225C133.762 239.869 145.327 252.037 159.953 253Z" stroke="#262626" stroke-width="1.4"/>
<path d="M159.953 281V225C145.327 225.963 133.762 238.131 133.762 253C133.762 267.869 145.327 280.037 159.953 281Z" stroke="#262626" stroke-width="1.4"/>
</g>
<g opacity="0.8">
<path d="M166.953 0.999998V57C181.579 56.0373 193.144 43.8693 193.144 29.0001C193.144 14.1309 181.579 1.96297 166.953 0.999998Z" stroke="#262626" stroke-width="1.4"/>
<path d="M166.953 29V85C181.579 84.0373 193.144 71.8693 193.144 57.0001C193.144 42.1309 181.579 29.963 166.953 29Z" stroke="#262626" stroke-width="1.4"/>
<path d="M166.953 57V113C181.579 112.037 193.144 99.8693 193.144 85.0001C193.144 70.1309 181.579 57.963 166.953 57Z" stroke="#262626" stroke-width="1.4"/>
<path d="M166.953 85V141C181.579 140.037 193.144 127.869 193.144 113C193.144 98.1309 181.579 85.963 166.953 85Z" stroke="#262626" stroke-width="1.4"/>
<path d="M166.953 113V169C181.579 168.037 193.144 155.869 193.144 141C193.144 126.131 181.579 113.963 166.953 113Z" stroke="#262626" stroke-width="1.4"/>
<path d="M166.953 141V197C181.579 196.037 193.144 183.869 193.144 169C193.144 154.131 181.579 141.963 166.953 141Z" stroke="#262626" stroke-width="1.4"/>
<path d="M166.953 169V225C181.579 224.037 193.144 211.869 193.144 197C193.144 182.131 181.579 169.963 166.953 169Z" stroke="#262626" stroke-width="1.4"/>
<path d="M166.953 197V253C181.579 252.037 193.144 239.869 193.144 225C193.144 210.131 181.579 197.963 166.953 197Z" stroke="#262626" stroke-width="1.4"/>
<path d="M166.953 225V281C181.579 280.037 193.144 267.869 193.144 253C193.144 238.131 181.579 225.963 166.953 225Z" stroke="#262626" stroke-width="1.4"/>
</g>
<g opacity="0.9">
<path d="M226.334 57V1C211.709 1.96266 200.144 14.1307 200.144 28.9999C200.144 43.8691 211.709 56.037 226.334 57Z" stroke="#262626" stroke-width="1.4"/>
<path d="M226.334 85V29C211.709 29.9627 200.144 42.1307 200.144 56.9999C200.144 71.8691 211.709 84.037 226.334 85Z" stroke="#262626" stroke-width="1.4"/>
<path d="M226.334 113V57C211.709 57.9627 200.144 70.1307 200.144 84.9999C200.144 99.8691 211.709 112.037 226.334 113Z" stroke="#262626" stroke-width="1.4"/>
<path d="M226.334 141V85C211.709 85.9627 200.144 98.1307 200.144 113C200.144 127.869 211.709 140.037 226.334 141Z" stroke="#262626" stroke-width="1.4"/>
<path d="M226.334 169V113C211.709 113.963 200.144 126.131 200.144 141C200.144 155.869 211.709 168.037 226.334 169Z" stroke="#262626" stroke-width="1.4"/>
<path d="M226.334 197V141C211.709 141.963 200.144 154.131 200.144 169C200.144 183.869 211.709 196.037 226.334 197Z" stroke="#262626" stroke-width="1.4"/>
<path d="M226.334 225V169C211.709 169.963 200.144 182.131 200.144 197C200.144 211.869 211.709 224.037 226.334 225Z" stroke="#262626" stroke-width="1.4"/>
<path d="M226.334 253V197C211.709 197.963 200.144 210.131 200.144 225C200.144 239.869 211.709 252.037 226.334 253Z" stroke="#262626" stroke-width="1.4"/>
<path d="M226.334 281V225C211.709 225.963 200.144 238.131 200.144 253C200.144 267.869 211.709 280.037 226.334 281Z" stroke="#262626" stroke-width="1.4"/>
</g>
</g>
</svg>
